<svg width="115" height="112" viewBox="0 0 115 112" fill="none" xmlns="http://www.w3.org/2000/svg">
<path d="M96.704 19.1855C97.2465 19.5791 97.7526 20.0129 98.22 20.4874L97.8638 20.8383C98.0878 21.0657 98.3025 21.3028 98.5076 21.5498C98.7128 21.7967 98.9065 22.0513 99.089 22.3131L99.4992 22.0273C99.88 22.5738 100.214 23.1509 100.501 23.7564L100.049 23.9708C100.321 24.5429 100.55 25.1427 100.738 25.7685L101.217 25.625C101.404 26.2514 101.551 26.9016 101.658 27.5737L101.164 27.6523C101.264 28.2767 101.328 28.9222 101.357 29.5874L101.857 29.5654C101.885 30.2169 101.881 30.8853 101.845 31.5693L101.346 31.5429C101.312 32.1777 101.25 32.8273 101.161 33.4906L101.656 33.5576C101.569 34.2037 101.456 34.8616 101.317 35.5302L100.828 35.4287C100.697 36.0584 100.544 36.6984 100.368 37.3479L100.85 37.4788C100.679 38.1108 100.486 38.751 100.273 39.3986L99.7983 39.2424C99.596 39.8575 99.3746 40.4799 99.1346 41.1087L99.6017 41.287C99.3678 41.8998 99.1165 42.5183 98.8481 43.1419L98.3889 42.9442C98.1318 43.5414 97.8588 44.1436 97.57 44.7501L98.0215 44.965C97.7387 45.5589 97.4412 46.1567 97.1291 46.7579L96.6854 46.5276C96.3847 47.1067 96.0704 47.6891 95.7426 48.2744L96.1788 48.5188C95.8571 49.0931 95.5226 49.6701 95.1755 50.2492L94.7466 49.9921C94.4102 50.5533 94.0619 51.1166 93.7017 51.6816L94.1233 51.9504C93.7687 52.5066 93.4029 53.0644 93.0259 53.6233L92.6114 53.3437C92.2445 53.8878 91.8669 54.433 91.4788 54.9791L91.8864 55.2688C91.5034 55.8077 91.1103 56.3474 90.7073 56.8874L90.3066 56.5884C89.9129 57.116 89.5096 57.644 89.0969 58.1721L89.4908 58.48C89.0826 59.0023 88.6653 59.5247 88.239 60.0467L87.8517 59.7305C87.4356 60.2401 87.0109 60.7495 86.5777 61.2583L86.9584 61.5824C86.5294 62.0863 86.0921 62.5897 85.6468 63.0922L85.2726 62.7606C84.8351 63.2542 84.3898 63.747 83.9367 64.2388L84.3044 64.5776C83.8547 65.0657 83.3973 65.5528 82.9325 66.0386L82.5712 65.6929C82.1143 66.1705 81.6501 66.6468 81.1787 67.1216L81.5336 67.4738C81.0668 67.944 80.5931 68.4127 80.1125 68.8796L79.7641 68.521C79.2903 68.9814 78.8098 69.4401 78.3227 69.8969L78.6647 70.2617C78.18 70.7163 77.6887 71.1691 77.1911 71.6197L76.8554 71.2491C76.3649 71.6933 75.8682 72.1354 75.3653 72.5753L75.6945 72.9516C75.1951 73.3884 74.6897 73.823 74.1783 74.2552L73.8556 73.8733C73.6014 74.0881 73.3457 74.3024 73.0886 74.516C72.8314 74.7296 72.5739 74.9416 72.3161 75.1521L72.6323 75.5395C72.1137 75.9629 71.5938 76.38 71.0728 76.7908L70.7632 76.3982C70.2386 76.8119 69.7129 77.2191 69.1863 77.6199L69.4891 78.0177C68.9548 78.4243 68.4196 78.8242 67.8838 79.2174L67.588 78.8143C67.0496 79.2093 66.5105 79.5976 65.9711 79.9789L66.2597 80.3872C65.7125 80.774 65.1649 81.1537 64.6171 81.5263L64.3359 81.1129C63.7827 81.4892 63.2294 81.8582 62.6761 82.2198L62.9497 82.6383C62.3869 83.0062 61.8242 83.3664 61.2619 83.719L60.9962 83.2954C60.4297 83.6507 59.8636 83.9981 59.2981 84.3376L59.5555 84.7662C58.9798 85.1119 58.4048 85.4494 57.8308 85.7787L57.582 85.345C57.0023 85.6776 56.4237 86.0017 55.8464 86.3173L56.0863 86.756C55.4949 87.0793 54.9048 87.3938 54.3165 87.6993L54.0861 87.2555C53.4913 87.5644 52.8983 87.864 52.3074 88.1543L52.5279 88.603C51.9231 88.9002 51.3205 89.1876 50.7204 89.4653L50.5105 89.0115C49.9025 89.2928 49.2972 89.564 48.6951 89.825L48.8939 90.2837C48.2753 90.5518 47.6599 90.8092 47.0481 91.0557L46.8612 90.5919C46.2397 90.8424 45.6221 91.0815 45.0087 91.3093L45.1828 91.778C44.5499 92.0131 43.9214 92.2361 43.2978 92.447L43.1376 91.9734C42.5021 92.1883 41.8718 92.3905 41.2474 92.5798L41.3925 93.0583C40.7443 93.2549 40.102 93.4377 39.4664 93.6067L39.3379 93.1235C38.6887 93.2961 38.0467 93.4541 37.4124 93.5973L37.5225 94.085C36.8603 94.2345 36.2062 94.3681 35.5609 94.4857L35.4713 93.9938C34.8091 94.1144 34.1567 94.2179 33.5149 94.304L33.5814 94.7995C32.9057 94.8902 32.2411 94.9619 31.5884 95.0145L31.5482 94.5161C30.8774 94.5702 30.2201 94.6037 29.5772 94.6165L29.5871 95.1164C28.9045 95.1299 28.237 95.1205 27.5858 95.0879L27.6108 94.5885C26.9424 94.555 26.2925 94.4966 25.6623 94.4131L25.5966 94.9088C24.9176 94.8188 24.2598 94.7003 23.6246 94.5527L23.7378 94.0656C23.0892 93.915 22.4665 93.7336 21.8709 93.5214L21.7031 93.9924C21.0619 93.7639 20.4497 93.5003 19.8684 93.201L20.0973 92.7564C19.5164 92.4573 18.9689 92.122 18.4563 91.7501L18.1627 92.1548C17.6202 91.7612 17.1141 91.3274 16.6467 90.8529L17.0029 90.502C16.7789 90.2747 16.5642 90.0375 16.3591 89.7906C16.1539 89.5436 15.9602 89.2891 15.7777 89.0272L15.3675 89.313C14.9867 88.7665 14.6531 88.1894 14.3657 87.584L14.8174 87.3695C14.5458 86.7974 14.3165 86.1977 14.129 85.5719L13.6501 85.7153C13.4624 85.0889 13.3155 84.4388 13.2085 83.7666L13.7023 83.688C13.6029 83.0636 13.5388 82.4182 13.5097 81.753L13.0101 81.7749C12.9815 81.1234 12.9856 80.455 13.0217 79.771L13.521 79.7974C13.5545 79.1626 13.6163 78.513 13.7059 77.8497L13.2104 77.7828C13.2978 77.1366 13.4109 76.4787 13.5495 75.8102L14.0391 75.9116C14.1695 75.2819 14.323 74.6419 14.4992 73.9924L14.0166 73.8615C14.188 73.2295 14.3804 72.5893 14.5934 71.9417L15.0684 72.098C15.2708 71.4828 15.4921 70.8604 15.7321 70.2316L15.265 70.0533C15.4989 69.4405 15.7502 68.822 16.0186 68.1984L16.4779 68.3961C16.7349 67.7989 17.008 67.1968 17.2967 66.5902L16.8452 66.3753C17.128 65.7814 17.4255 65.1836 17.7376 64.5824L18.1814 64.8128C18.482 64.2337 18.7963 63.6512 19.1241 63.0659L18.6879 62.8216C19.0096 62.2472 19.3441 61.6702 19.6912 61.0912L20.1201 61.3482C20.4565 60.7871 20.8049 60.2238 21.165 59.6587L20.7434 59.39C21.098 58.8337 21.4638 58.276 21.8408 57.717L22.2553 57.9966C22.6223 57.4525 22.9998 56.9073 23.3879 56.3612L22.9803 56.0716C23.3633 55.5326 23.7564 54.9929 24.1594 54.4529L24.5602 54.7519C24.9539 54.2243 25.3571 53.6963 25.7698 53.1683L25.3759 52.8604C25.7841 52.338 26.2014 51.8157 26.6277 51.2936L27.015 51.6098C27.4311 51.1002 27.8558 50.5909 28.289 50.082L27.9083 49.7579C28.3373 49.254 28.7746 48.7506 29.2199 48.2481L29.5941 48.5797C30.0316 48.0861 30.4769 47.5933 30.93 47.1015L30.5623 46.7627C31.0121 46.2746 31.4694 45.7875 31.9342 45.3017L32.2955 45.6474C32.7524 45.1699 33.2166 44.6936 33.688 44.2188L33.3332 43.8665C33.7999 43.3963 34.2736 42.9277 34.7542 42.4607L35.1026 42.8193C35.5764 42.3589 36.0569 41.9002 36.544 41.4434L36.202 41.0787C36.6868 40.624 37.178 40.1713 37.6757 39.7206L38.0113 40.0913C38.5018 39.6471 38.9985 39.2049 39.5014 38.7651L39.1722 38.3887C39.6716 37.9519 40.177 37.5173 40.6884 37.0852L41.0111 37.467C41.2653 37.2522 41.521 37.038 41.7782 36.8244C42.0353 36.6107 42.2928 36.3987 42.5506 36.1882L42.2344 35.8009C42.753 35.3775 43.2729 34.9603 43.7939 34.5495L44.1035 34.9421C44.6281 34.5284 45.1539 34.1212 45.6804 33.7205L45.3777 33.3226C45.9119 32.916 46.4471 32.5161 46.9829 32.1229L47.2787 32.5261C47.8171 32.131 48.3562 31.7428 48.8956 31.3614L48.607 30.9532C49.1542 30.5664 49.7018 30.1866 50.2496 29.814L50.5308 30.2274C51.084 29.8511 51.6373 29.4822 52.1906 29.1206L51.917 28.702C52.4798 28.3342 53.0425 27.9739 53.6049 27.6213L53.8705 28.0449C54.437 27.6897 55.0032 27.3423 55.5686 27.0028L55.3112 26.5741C55.8869 26.2284 56.4619 25.8909 57.0359 25.5616L57.2847 25.9953C57.8644 25.6627 58.443 25.3386 59.0203 25.0231L58.7804 24.5843C59.3718 24.261 59.9619 23.9466 60.5502 23.6411L60.7806 24.0848C61.3754 23.776 61.9684 23.4764 62.5593 23.1861L62.3388 22.7373C62.9436 22.4402 63.5462 22.1527 64.1463 21.875L64.3562 22.3288C64.9642 22.0475 65.5695 21.7763 66.1716 21.5154L65.9728 21.0566C66.5914 20.7885 67.2068 20.5312 67.8186 20.2846L68.0055 20.7484C68.627 20.4979 69.2446 20.2588 69.858 20.031L69.6839 19.5623C70.3168 19.3273 70.9453 19.1042 71.569 18.8933L71.7292 19.3669C72.3647 19.152 72.9949 18.9498 73.6193 18.7605L73.4742 18.282C74.1224 18.0855 74.7647 17.9026 75.4003 17.7336L75.5288 18.2168C76.178 18.0442 76.8201 17.8862 77.4543 17.7431L77.3442 17.2553C78.0064 17.1058 78.6605 16.9722 79.3058 16.8546L79.3954 17.3465C80.0576 17.2259 80.71 17.1225 81.3518 17.0364L81.2853 16.5408C81.961 16.4502 82.6256 16.3784 83.2784 16.3258L83.3185 16.8242C83.9893 16.7702 84.6466 16.7367 85.2896 16.7239L85.2796 16.224C85.9622 16.2104 86.6297 16.2198 87.2809 16.2524L87.2559 16.7518C87.9244 16.7853 88.5742 16.8437 89.2044 16.9272L89.2701 16.4315C89.9491 16.5215 90.6069 16.6401 91.2421 16.7877L91.1289 17.2747C91.7775 17.4254 92.4002 17.6067 92.9958 17.8189L93.1636 17.3479C93.8048 17.5764 94.417 17.84 94.9983 18.1394L94.7694 18.5839C95.3503 18.883 95.8978 19.2183 96.4104 19.5902L96.704 19.1855Z" stroke="#E6E6E2" stroke-dasharray="2 2"/>
<path d="M15.4371 21.1945C15.7639 20.6093 16.1349 20.0556 16.5509 19.5354L16.9414 19.8477C17.1407 19.5984 17.3508 19.3572 17.5718 19.1243C17.7928 18.8914 18.0227 18.669 18.2612 18.4569L17.9289 18.0833C18.4267 17.6407 18.9603 17.2413 19.5276 16.8843L19.7939 17.3075C20.3299 16.9703 20.8984 16.6718 21.4977 16.4117L21.2986 15.9531C21.8985 15.6928 22.5268 15.4701 23.1816 15.2845L23.3179 15.7655C23.9262 15.5931 24.5596 15.4533 25.2167 15.3457L25.1359 14.8523C25.7795 14.747 26.4437 14.6721 27.1271 14.6271L27.1599 15.1261C27.7943 15.0844 28.4466 15.069 29.1158 15.0797L29.1238 14.5797C29.7757 14.5902 30.4424 14.6249 31.1226 14.6835L31.0797 15.1816C31.7204 15.2368 32.3741 15.3137 33.0398 15.4119L33.1128 14.9172C33.7606 15.0128 34.4191 15.1283 35.0873 15.2633L34.9882 15.7534C35.623 15.8817 36.2671 16.028 36.9199 16.1921L37.0418 15.7072C37.6779 15.8671 38.3218 16.0436 38.9727 16.2365L38.8306 16.7159C39.454 16.9006 40.0842 17.1006 40.7206 17.3157L40.8807 16.842C41.5038 17.0526 42.1326 17.2775 42.7664 17.5164L42.5901 17.9843C43.2006 18.2144 43.8161 18.4578 44.436 18.7142L44.6271 18.2522C45.2355 18.5038 45.8479 18.7678 46.4639 19.0441L46.2593 19.5003C46.8562 19.7681 47.4567 20.0475 48.0604 20.3385L48.2775 19.888C48.8717 20.1744 49.4687 20.4719 50.0683 20.7802L49.8396 21.2248C50.4232 21.5249 51.0092 21.8355 51.5973 22.1564L51.8368 21.7174C52.4172 22.0341 52.9995 22.3607 53.5834 22.6971L53.3338 23.1304C53.9041 23.459 54.4761 23.7971 55.0492 24.1446L55.3084 23.717C55.8753 24.0607 56.4433 24.4134 57.0121 24.7751L56.7438 25.197C57.2989 25.55 57.8549 25.9116 58.4113 26.2817L58.6882 25.8654C59.2393 26.2319 59.7907 26.6066 60.3423 26.9895L60.0572 27.4003C60.599 27.7764 61.141 28.1604 61.6828 28.5522L61.9758 28.1471C62.5137 28.5361 63.0513 28.9327 63.5886 29.3369L63.288 29.7365C63.8162 30.1338 64.344 30.5385 64.8711 30.9505L65.179 30.5565C65.701 30.9645 66.2223 31.3796 66.7428 31.8016L66.4279 32.19C66.941 32.6061 67.4532 33.0291 67.9643 33.4588L68.2861 33.0761C68.7948 33.5038 69.3024 33.9381 69.8087 34.3791L69.4803 34.7561C69.9793 35.1907 70.477 35.6318 70.9731 36.0792L71.308 35.7079C71.8007 36.1522 72.292 36.6028 72.7815 37.0595L72.4404 37.4251C72.6837 37.6521 72.9267 37.8807 73.1691 38.1109C73.4116 38.341 73.6526 38.5716 73.8921 38.8028L74.2393 38.443C74.721 38.908 75.1966 39.375 75.6661 39.8439L75.3128 40.1977C75.7855 40.6698 76.252 41.1437 76.7121 41.6193L77.0715 41.2717C77.5383 41.7542 77.9986 42.2384 78.4523 42.724L78.0869 43.0654C78.5428 43.5534 78.992 44.0428 79.4343 44.5334L79.8057 44.1986C80.2544 44.6963 80.6961 45.1952 81.1308 45.6952L80.7535 46.0232C81.1925 46.5281 81.6242 47.034 82.0486 47.5407L82.4319 47.2196C82.8637 47.735 83.2879 48.2513 83.7044 48.768L83.3151 49.0818C83.7348 49.6024 84.1466 50.1236 84.5505 50.645L84.9458 50.3388C85.357 50.8696 85.7601 51.4007 86.1549 51.9319L85.7536 52.2301C86.1523 52.7665 86.5424 53.3028 86.924 53.8387L87.3313 53.5488C87.7222 54.0978 88.1041 54.6466 88.4769 55.1948L88.0635 55.476C88.4404 56.0302 88.808 56.5836 89.166 57.136L89.5856 56.8641C89.9521 57.4296 90.3087 57.994 90.6553 58.5571L90.2295 58.8192C90.5806 59.3897 90.9214 59.9587 91.2516 60.5258L91.6837 60.2742C92.0229 60.8568 92.3512 61.4375 92.6682 62.016L92.2298 62.2563C92.5519 62.8439 92.8623 63.429 93.1609 64.0111L93.6058 63.7829C93.9139 64.3836 94.2096 64.9814 94.4927 65.5758L94.0413 65.7908C94.3298 66.3965 94.6049 66.9984 94.8667 67.5961L95.3247 67.3955C95.5964 68.016 95.8538 68.6321 96.0967 69.2434L95.6321 69.428C95.8801 70.0523 96.1128 70.6712 96.3299 71.2841L96.8012 71.1171C97.0278 71.7571 97.2378 72.3908 97.4307 73.0177L96.9528 73.1648C97.1508 73.8081 97.3306 74.4437 97.4919 75.0709L97.9761 74.9463C98.1459 75.6066 98.2956 76.2581 98.4249 76.9L97.9348 76.9988C98.0677 77.6585 98.1786 78.3072 98.2672 78.9442L98.7624 78.8753C98.8565 79.5515 98.926 80.2154 98.9705 80.8659L98.4716 80.9001C98.5173 81.5678 98.5361 82.22 98.5276 82.8557L99.0275 82.8623C99.0184 83.5472 98.9783 84.2144 98.9068 84.8626L98.4098 84.8077C98.3368 85.4695 98.2302 86.1094 98.0898 86.7258L98.5773 86.8369C98.4262 87.5005 98.2367 88.1395 98.0081 88.7522L97.5396 88.5774C97.3112 89.1895 97.0429 89.7728 96.7341 90.3257L97.1707 90.5695C96.8439 91.1547 96.4729 91.7084 96.0569 92.2286L95.6664 91.9164C95.4671 92.1656 95.257 92.4068 95.036 92.6397C94.8149 92.8726 94.5851 93.095 94.3466 93.3071L94.6789 93.6807C94.1811 94.1233 93.6475 94.5227 93.0802 94.8797L92.8139 94.4565C92.2779 94.7937 91.7094 95.0922 91.1101 95.3523L91.3092 95.8109C90.7093 96.0713 90.081 96.2939 89.4262 96.4795L89.2899 95.9985C88.6816 96.1709 88.0482 96.3107 87.3911 96.4183L87.4719 96.9117C86.8283 97.017 86.1641 97.0919 85.4807 97.1369L85.4479 96.6379C84.8135 96.6796 84.1612 96.695 83.492 96.6843L83.484 97.1843C82.8321 97.1738 82.1654 97.1391 81.4852 97.0805L81.5281 96.5824C80.8874 96.5272 80.2337 96.4504 79.568 96.3521L79.495 96.8468C78.8472 96.7512 78.1887 96.6357 77.5205 96.5007L77.6196 96.0106C76.9848 95.8823 76.3407 95.736 75.6879 95.5719L75.566 96.0568C74.9299 95.8969 74.286 95.7204 73.6351 95.5275L73.7772 95.0481C73.1538 94.8634 72.5236 94.6634 71.8872 94.4483L71.7271 94.922C71.104 94.7114 70.4752 94.4865 69.8414 94.2476L70.0177 93.7797C69.4072 93.5496 68.7917 93.3062 68.1718 93.0498L67.9807 93.5118C67.3723 93.2602 66.7599 92.9962 66.1439 92.7199L66.3485 92.2637C65.7516 91.9959 65.151 91.7165 64.5474 91.4256L64.3303 91.876C63.7361 91.5896 63.1391 91.2921 62.5395 90.9838L62.7682 90.5392C62.1846 90.2391 61.5986 89.9285 61.0105 89.6076L60.771 90.0466C60.1906 89.7299 59.6083 89.4033 59.0244 89.0669L59.274 88.6336C58.7037 88.305 58.1317 87.9669 57.5586 87.6194L57.2994 88.047C56.7325 87.7033 56.1645 87.3506 55.5957 86.9889L55.864 86.567C55.3089 86.214 54.7529 85.8524 54.1965 85.4823L53.9196 85.8986C53.3685 85.5321 52.8171 85.1574 52.2654 84.7745L52.5506 84.3637C52.0088 83.9876 51.4668 83.6036 50.925 83.2118L50.632 83.6169C50.0941 83.2279 49.5564 82.8313 49.0192 82.4271L49.3198 82.0276C48.7916 81.6302 48.2638 81.2255 47.7367 80.8135L47.4288 81.2075C46.9068 80.7995 46.3854 80.3844 45.865 79.9624L46.1799 79.574C45.6668 79.1579 45.1546 78.7349 44.6435 78.3052L44.3217 78.6879C43.813 78.2602 43.3054 77.8259 42.7991 77.3849L43.1275 77.0079C42.6285 76.5733 42.1308 76.1322 41.6347 75.6848L41.2998 76.0561C40.8071 75.6118 40.3158 75.1612 39.8263 74.7045L40.1674 74.3389C39.9241 74.1119 39.6811 73.8833 39.4387 73.6531C39.1962 73.423 38.9552 73.1924 38.7157 72.9612L38.3685 73.321C37.8868 72.856 37.4111 72.389 36.9417 71.9201L37.295 71.5663C36.8222 71.0942 36.3558 70.6203 35.8957 70.1447L35.5363 70.4923C35.0695 70.0098 34.6092 69.5256 34.1555 69.04L34.5209 68.6986C34.065 68.2106 33.6158 67.7212 33.1735 67.2306L32.8021 67.5654C32.3534 67.0677 31.9117 66.5688 31.477 66.0688L31.8543 65.7408C31.4153 65.2359 30.9836 64.73 30.5592 64.2233L30.1759 64.5444C29.7441 64.029 29.3199 63.5127 28.9034 62.996L29.2927 62.6822C28.873 62.1616 28.4612 61.6404 28.0573 61.119L27.662 61.4252C27.2508 60.8944 26.8477 60.3633 26.4529 59.8321L26.8542 59.5339C26.4555 58.9975 26.0654 58.4612 25.6838 57.9253L25.2765 58.2152C24.8856 57.6662 24.5037 57.1174 24.1309 56.5692L24.5443 56.288C24.1673 55.7338 23.7998 55.1804 23.4418 54.628L23.0222 54.8999C22.6557 54.3344 22.2991 53.77 21.9525 53.2069L22.3783 52.9448C22.0272 52.3743 21.6864 51.8053 21.3562 51.2382L20.9241 51.4898C20.5849 50.9072 20.2566 50.3265 19.9396 49.748L20.378 49.5077C20.0559 48.9201 19.7455 48.335 19.4469 47.7529L19.002 47.9811C18.6939 47.3804 18.3982 46.7826 18.1151 46.1882L18.5665 45.9732C18.278 45.3676 18.0028 44.7656 17.7411 44.1679L17.2831 44.3685C17.0114 43.748 16.754 43.1319 16.5111 42.5206L16.9757 42.336C16.7277 41.7117 16.495 41.0928 16.2779 40.4799L15.8066 40.6469C15.5799 40.0069 15.37 39.3732 15.1771 38.7463L15.655 38.5992C15.457 37.9559 15.2772 37.3203 15.1159 36.6931L14.6317 36.8176C14.4619 36.1574 14.3122 35.5059 14.1828 34.864L14.673 34.7652C14.5401 34.1055 14.4292 33.4568 14.3406 32.8198L13.8454 32.8887C13.7513 32.2125 13.6818 31.5486 13.6373 30.8981L14.1361 30.8639C14.0905 30.1962 14.0717 29.544 14.0802 28.9083L13.5803 28.9017C13.5894 28.2168 13.6295 27.5496 13.701 26.9014L14.198 26.9563C14.271 26.2945 14.3776 25.6546 14.518 25.0382L14.0305 24.9271C14.1816 24.2635 14.3711 23.6245 14.5997 23.0118L15.0682 23.1866C15.2966 22.5745 15.5649 21.9912 15.8737 21.4383L15.4371 21.1945Z" stroke="#E6E6E2" stroke-dasharray="2 2"/>
</svg>
