<svg width="30" height="30" viewBox="0 0 30 30" fill="none" xmlns="http://www.w3.org/2000/svg">
<g clip-path="url(#clip0_319_641)">
<g clip-path="url(#clip1_319_641)">
<path d="M21.5508 0.0761751C20.7832 0.292972 20.2559 1.00782 20.2559 1.82813C20.2559 2.36719 20.5078 2.89453 20.9238 3.22266C21.2988 3.51563 21.5566 3.60352 22.0898 3.59766C22.5996 3.59766 22.9922 3.42774 23.3437 3.07032C23.6953 2.70703 23.8184 2.38477 23.8184 1.81641C23.8184 1.41797 23.7949 1.26563 23.6836 1.04883C23.2969 0.263675 22.377 -0.152341 21.5508 0.0761751ZM22.5586 1.11328C23.0156 1.44141 23.0215 2.19141 22.5645 2.51368C21.7383 3.10547 20.7656 2.0625 21.3984 1.25977C21.6621 0.919925 22.1953 0.855472 22.5586 1.11328Z" fill="#ED2939"/>
<path d="M14.0039 1.59961C13.8164 1.69336 13.6934 1.95117 13.7461 2.12695C13.7695 2.19726 13.998 2.47265 14.2559 2.73633L14.7305 3.22265L14.2793 3.68554C14.0332 3.9375 13.8047 4.21289 13.7754 4.30078C13.6992 4.48828 13.7695 4.69922 13.957 4.82812C14.209 5.00976 14.3438 4.95117 14.8887 4.41211L15.4102 3.90234L15.9316 4.41211C16.5176 4.98633 16.6934 5.05078 16.9629 4.77539C17.2383 4.50586 17.1738 4.33008 16.5996 3.74414L16.0898 3.22265L16.5996 2.70117C17.1797 2.10937 17.2207 1.98047 16.9395 1.69336C16.6523 1.40625 16.5234 1.45898 15.832 2.13281L15.4102 2.54883L14.9238 2.06836C14.4199 1.56445 14.2441 1.47656 14.0039 1.59961Z" fill="#ED2939"/>
<path d="M6.375 4.11914C5.87695 4.28906 5.74219 4.40625 5.74219 4.68164C5.74219 4.86328 5.83594 5.00977 6.38086 5.69531L7.02539 6.49219L4.03711 9.31641C2.04492 11.209 1.05469 12.1875 1.04883 12.2695C1.04297 12.3398 1.04883 12.4336 1.05469 12.4805C1.07812 12.6562 2.76562 15.7383 2.90625 15.8613C2.98828 15.9375 3.11133 15.9961 3.18164 15.9961C3.25195 15.9902 3.86133 15.709 4.54102 15.3633C5.97656 14.6309 5.95898 14.6484 5.75977 14.0273C5.64844 13.6875 5.64258 13.6406 5.72461 13.6113C5.77734 13.5879 6.22266 13.623 6.7207 13.6816C7.95117 13.8223 8.49609 13.7578 8.97656 13.4062C9.12305 13.3008 9.16406 13.377 9.1875 13.8281C9.21094 14.1855 9.1875 14.2793 9.04102 14.6016C8.8125 15.082 8.29688 15.7266 7.38281 16.6699C6.49219 17.5898 6.1875 17.9473 5.8418 18.4863C5.04492 19.7344 4.68164 20.9473 4.67578 22.4355C4.67578 22.875 4.69336 23.3262 4.7168 23.4492L4.75781 23.6602L4.08398 23.6836C3.33398 23.7012 3.20508 23.7539 2.94727 24.1406C2.81836 24.3223 2.8125 24.3926 2.8125 25.2891V26.25H1.89258C1.125 26.25 0.925781 26.2734 0.732422 26.3613C0.462891 26.4844 0.140625 26.8242 0.0761719 27.0586C0.046875 27.1465 0.0292969 27.6504 0.0292969 28.1836C0.0292969 29.0977 0.0351562 29.1621 0.169922 29.3965C0.251953 29.5371 0.416016 29.7188 0.544922 29.8066L0.779297 29.9707L11.0742 29.9883L21.3691 30L21.627 29.8652C21.7676 29.7891 21.9668 29.6133 22.0605 29.4785L22.2363 29.2266V28.1309C22.2363 27.0352 22.2363 27.0293 22.0781 26.7949C21.9902 26.666 21.8203 26.4961 21.6973 26.4199C21.4922 26.291 21.4043 26.2793 20.4961 26.2617L19.5234 26.2383L19.5 25.2949C19.4824 24.4277 19.4707 24.3281 19.3477 24.1289C19.125 23.7656 18.8379 23.6719 17.9824 23.6719H17.25L16.9219 23.3379C16.4707 22.875 16.3242 22.5762 16.3008 22.0488C16.2773 21.6973 16.3008 21.5801 16.4238 21.3047C16.5996 20.9238 17.0508 20.4609 17.4141 20.2793C17.5547 20.2148 17.8125 20.1328 17.9883 20.0977C18.1641 20.0625 18.3574 19.9863 18.416 19.9277C18.7031 19.6465 18.8965 18.2051 18.8496 16.7871C18.7031 12.5918 16.8398 8.4375 14.2559 6.52148C13.084 5.64844 12.0469 5.26172 10.5293 5.13281L9.69727 5.0625L9.31055 4.78711C8.26758 4.04883 7.25391 3.82031 6.375 4.11914ZM8.11523 5.17383C8.35547 5.29102 8.75391 5.53125 9 5.71289L9.44531 6.04688L10.2188 6.06445C11.9062 6.11133 13.2129 6.69727 14.502 7.99219C16.2773 9.77344 17.543 12.7852 17.877 16.0254C17.959 16.8281 17.918 18.3691 17.8008 18.8555C17.7246 19.1602 17.7188 19.1719 17.4316 19.2656C16.207 19.6816 15.3516 20.8008 15.3516 21.9961C15.3516 22.5117 15.457 22.8867 15.7266 23.332L15.9316 23.6719H10.8105H5.69531L5.66016 23.4492C5.41992 21.832 5.80664 20.1914 6.75 18.8203C6.91992 18.5801 7.42969 17.9941 7.875 17.5254C9.84961 15.457 10.3711 14.5957 10.1953 13.6875C10.1191 13.2832 9.62695 12.2168 9.43945 12.0469C9.25195 11.877 8.9707 11.9004 8.82422 12.0938C8.29688 12.791 8.07422 12.8848 7.11914 12.7734C6.01758 12.6504 5.6543 12.6387 5.41406 12.7148C5.09766 12.8145 4.81641 13.0371 4.70508 13.2773C4.61719 13.459 4.61719 13.5 4.7168 13.8281C4.77539 14.0215 4.81055 14.1914 4.79883 14.2031C4.75195 14.2441 3.38086 14.8828 3.36914 14.8711C3.30469 14.7832 2.10938 12.5273 2.10938 12.4863C2.10938 12.457 3.45117 11.1621 5.0918 9.60938C6.79102 7.99805 8.0918 6.72656 8.10938 6.65039C8.12695 6.57422 8.12695 6.46289 8.10352 6.4043C8.07422 6.31641 7.45898 5.52539 7.03711 5.01562C6.94922 4.91016 6.95508 4.9043 7.3125 4.93945C7.56445 4.95703 7.82227 5.03906 8.11523 5.17383ZM18.5742 25.4297V26.25H11.1621H3.75V25.4297V24.6094H11.1621H18.5742V25.4297ZM21.2578 27.2578C21.3574 27.3574 21.3574 28.8926 21.2578 28.9922C21.2051 29.0449 18.873 29.0625 11.1211 29.0625C1.23047 29.0625 1.06055 29.0625 0.996094 28.9512C0.966797 28.8867 0.9375 28.5176 0.9375 28.125C0.9375 27.7324 0.966797 27.3633 0.996094 27.2988C1.06055 27.1875 1.23047 27.1875 11.1211 27.1875C18.873 27.1875 21.2051 27.2051 21.2578 27.2578Z" fill="#ED2939"/>
<path d="M10.9277 7.17774C10.6465 7.45313 10.7519 7.77539 11.209 8.00391C12 8.4082 12.9023 9.1875 13.5351 10.0313C14.4726 11.2734 15.1582 12.9551 15.4629 14.7773C15.5742 15.4102 15.6973 16.8457 15.7031 17.4727C15.7031 17.748 15.8672 17.9297 16.1191 17.9297C16.3652 17.9297 16.5 17.8418 16.5703 17.6426C16.6465 17.4258 16.5644 15.709 16.4355 14.877C15.8848 11.3496 14.1035 8.44922 11.7363 7.23633C11.2617 6.99609 11.1152 6.98438 10.9277 7.17774Z" fill="#ED2939"/>
<path d="M21.873 5.56641C21.7324 5.625 19.9277 7.82813 19.8281 8.06836C19.7461 8.26172 19.8223 8.53125 19.9805 8.61328C20.1504 8.70703 20.4375 8.6836 20.5547 8.56641C20.6074 8.51367 20.8535 8.2207 21.0937 7.92188L21.5332 7.37695L21.5625 10.2832L21.5918 13.1953L21.7559 13.3359L21.9199 13.4766H24.0879H26.25V16.1426V18.8145L26.3965 18.9551C26.584 19.1484 26.8535 19.1484 27.041 18.9551L27.1875 18.8145V15.8203V12.8262L27.041 12.6855L26.9004 12.5391H24.6973H22.5V9.91406C22.5059 7.8457 22.5176 7.3125 22.5762 7.38281C22.6172 7.43555 22.8633 7.7461 23.1328 8.07422C23.5957 8.64258 23.6309 8.67188 23.8418 8.67188C23.9941 8.67188 24.0996 8.63086 24.1875 8.53711C24.4453 8.26172 24.3867 8.14453 23.373 6.88477C22.8574 6.24024 22.4004 5.6836 22.3652 5.64258C22.2656 5.54297 22.0195 5.50196 21.873 5.56641Z" fill="#ED2939"/>
<path d="M26.9238 5.86523C26.7422 5.9707 26.6602 6.09961 26.6602 6.29297C26.6602 6.43945 26.7539 6.56836 27.1699 6.98437L27.6797 7.5L27.1699 8.01562C26.5957 8.60742 26.5313 8.7832 26.8066 9.05273C27.0762 9.32812 27.2637 9.25195 27.9023 8.625L28.3594 8.17968L28.875 8.68945C29.4434 9.24609 29.5723 9.29297 29.8477 9.07617C29.9648 8.98828 30 8.90625 30 8.74218C30 8.54297 29.9473 8.47265 29.502 8.02734L29.0098 7.53515L29.502 7.01953C29.9297 6.58007 30 6.48047 30 6.30468C30 6.01757 29.8301 5.83593 29.5664 5.83593C29.373 5.83593 29.2969 5.88867 28.8398 6.3457L28.3301 6.85547L27.832 6.35742C27.3223 5.85351 27.1289 5.7539 26.9238 5.86523Z" fill="#ED2939"/>
<path d="M26.25 21.0527C25.4355 21.2812 24.9375 21.9434 24.9375 22.793C24.9375 23.5254 25.2949 24.0937 25.9453 24.416C26.3965 24.6387 27.0762 24.6445 27.4805 24.4394C27.8379 24.2578 28.1602 23.9355 28.3477 23.584C28.5586 23.1797 28.5703 22.5 28.3652 22.0488C28.207 21.6914 27.8145 21.3105 27.4512 21.1465C27.1172 21 26.584 20.959 26.25 21.0527ZM27.0996 22.0312C27.375 22.166 27.5977 22.5 27.5977 22.7871C27.5977 23.0859 27.3926 23.4199 27.1289 23.5547C26.8359 23.7012 26.6426 23.7012 26.332 23.5488C26.0742 23.4258 25.8398 23.0742 25.8398 22.8047C25.8398 22.4941 26.0859 22.1367 26.3965 21.9961C26.6426 21.8848 26.8184 21.8965 27.0996 22.0312Z" fill="#ED2939"/>
</g>
</g>
<defs>
<clipPath id="clip0_319_641">
<rect width="30" height="30" fill="white"/>
</clipPath>
<clipPath id="clip1_319_641">
<rect width="30" height="30" fill="white"/>
</clipPath>
</defs>
</svg>
