<svg width="30" height="30" viewBox="0 0 30 30" fill="none" xmlns="http://www.w3.org/2000/svg">
<g clip-path="url(#clip0_319_650)">
<g clip-path="url(#clip1_319_650)">
<path d="M25.5762 0.539061C25.418 0.568357 25.0723 0.697264 24.8086 0.820311C23.8535 1.27734 23.168 2.2207 23.0156 3.27539L22.9453 3.75H11.707H0.46875V13.125V22.5L7.51758 22.5117L14.5605 22.5293L14.6016 22.9102C14.707 23.8887 15.082 25.002 15.5801 25.834C17.0332 28.248 19.623 29.6484 22.3828 29.5078C24.3164 29.4141 25.9336 28.6934 27.3105 27.3105C28.6934 25.9336 29.4141 24.3164 29.5078 22.3828C29.6191 20.2207 28.7812 18.1406 27.1934 16.623L26.7188 16.1719V11.5781V6.99023L27.041 6.91992C27.7969 6.75 28.6582 6.12304 29.0449 5.46679C29.8242 4.13672 29.6309 2.51953 28.5645 1.44726C27.791 0.662107 26.6895 0.328123 25.5762 0.539061ZM27.2109 1.6289C27.7441 1.875 28.084 2.21484 28.3477 2.74219C28.5527 3.16406 28.5645 3.21679 28.5645 3.75C28.5645 4.2832 28.5527 4.33594 28.3477 4.75781C28.084 5.29101 27.7441 5.61914 27.1992 5.87695C26.8418 6.04687 26.7539 6.06445 26.25 6.06445C25.7461 6.06445 25.6582 6.04687 25.3125 5.88281C24.7559 5.61328 24.416 5.29101 24.1582 4.75781C23.9473 4.33594 23.9355 4.2832 23.9355 3.75586C23.9355 3.24609 23.9531 3.1582 24.123 2.80078C24.3574 2.30273 24.6914 1.93945 25.1309 1.71094C25.5879 1.46484 25.8457 1.40625 26.3789 1.42969C26.7363 1.44726 26.918 1.49414 27.2109 1.6289ZM23.1738 4.85742C23.1914 4.95117 23.3027 5.17969 23.4141 5.36719L23.6191 5.70703L22.1953 7.13086C21.0469 8.28516 20.748 8.55469 20.6543 8.52539C20.3848 8.44336 19.9805 8.42578 19.7754 8.49609L19.5586 8.56641L19.084 8.09766C18.6211 7.63477 18.6152 7.62891 18.6855 7.44141C18.9727 6.60937 18.2461 5.625 17.3438 5.625C16.9746 5.625 16.6758 5.75977 16.377 6.06445C15.9668 6.46875 15.8379 6.96094 16.002 7.44141L16.0723 7.62891L14.9062 8.79492C13.9688 9.73242 13.7168 9.96094 13.623 9.93164C13.0371 9.75586 12.5684 9.86719 12.1582 10.2773C11.5664 10.875 11.5664 11.625 12.1582 12.2168C12.75 12.8086 13.5 12.8086 14.0977 12.2168C14.5078 11.8066 14.6191 11.3379 14.4434 10.752C14.4141 10.6582 14.6426 10.4062 15.5801 9.46875L16.7461 8.30273L16.9336 8.37305C17.1797 8.45508 17.5078 8.45508 17.7539 8.37305C17.9414 8.30273 17.9473 8.30859 18.4102 8.77734C18.8789 9.24023 18.8848 9.24609 18.8145 9.43359C18.5273 10.2656 19.2539 11.25 20.1562 11.25C20.5254 11.25 20.8242 11.1152 21.1289 10.8105C21.5391 10.4004 21.6504 9.93164 21.4746 9.3457C21.4453 9.25195 21.7207 8.95312 22.8691 7.80469L24.293 6.38086L24.6328 6.58594C24.8203 6.69727 25.1543 6.83789 25.377 6.89648L25.7812 6.99609V11.2676C25.7812 13.6172 25.7637 15.5273 25.7402 15.5156C24.7324 15 24.0176 14.7598 23.0859 14.6191C20.8652 14.2793 18.5742 15.0117 16.9043 16.5937L16.4062 17.0625V16.0312V15H15H13.5938V17.8125V20.625H14.1211H14.6543L14.6133 21.0176C14.5957 21.2402 14.5723 21.4512 14.5547 21.4863C14.5371 21.5449 13.1719 21.5625 7.96875 21.5625H1.40625V13.125V4.6875H12.2695H23.1328L23.1738 4.85742ZM17.666 6.70898C17.7598 6.79687 17.8125 6.91992 17.8125 7.03125C17.8125 7.14258 17.7598 7.26562 17.666 7.35352C17.5781 7.44727 17.4551 7.5 17.3438 7.5C17.2324 7.5 17.1094 7.44727 17.0215 7.35352C16.9277 7.26562 16.875 7.14258 16.875 7.03125C16.875 6.91992 16.9277 6.79687 17.0215 6.70898C17.1094 6.61523 17.2324 6.5625 17.3438 6.5625C17.4551 6.5625 17.5781 6.61523 17.666 6.70898ZM20.4785 9.52148C20.5723 9.60937 20.625 9.73242 20.625 9.84375C20.625 9.95508 20.5723 10.0781 20.4785 10.166C20.3906 10.2598 20.2676 10.3125 20.1562 10.3125C20.0449 10.3125 19.9219 10.2598 19.834 10.166C19.7402 10.0781 19.6875 9.95508 19.6875 9.84375C19.6875 9.73242 19.7402 9.60937 19.834 9.52148C19.9219 9.42773 20.0449 9.375 20.1562 9.375C20.2676 9.375 20.3906 9.42773 20.4785 9.52148ZM13.4473 10.9277C13.7402 11.2148 13.5352 11.7187 13.125 11.7187C12.8848 11.7187 12.6562 11.4902 12.6562 11.25C12.6562 11.0098 12.8848 10.7812 13.125 10.7812C13.2363 10.7812 13.3594 10.834 13.4473 10.9277ZM21.5391 17.3203C21.5273 17.3555 21.3809 17.4023 21.2109 17.4258C20.7422 17.4902 19.9629 17.7949 19.4883 18.1055C17.6836 19.2832 16.8926 21.5742 17.6133 23.5547C17.6895 23.7656 17.7305 23.9531 17.707 23.9766C17.6836 23.9941 17.3262 24.2109 16.9043 24.4512L16.1426 24.8906L16.0078 24.5977C15.2637 22.957 15.3047 20.8945 16.1133 19.2246C17.0684 17.2559 18.9258 15.8672 21.0234 15.5625L21.5332 15.4922L21.5508 16.3711C21.5566 16.8574 21.5566 17.2793 21.5391 17.3203ZM23.8184 15.7383C26.918 16.5996 28.9746 19.7109 28.5293 22.8867C28.459 23.4141 28.248 24.1758 28.0547 24.5977L27.9199 24.8906L27.1465 24.4453C26.7246 24.1934 26.3613 23.9766 26.3438 23.959C26.3262 23.9414 26.3672 23.7832 26.4316 23.6074C27.0117 22.0957 26.6836 20.2852 25.6055 19.0137C24.8965 18.1816 23.959 17.6367 22.9102 17.4375L22.5293 17.3672L22.5117 16.4297L22.5 15.4863L22.8926 15.5391C23.1152 15.5684 23.5312 15.6562 23.8184 15.7383ZM15.4688 17.1621V18.3809L15.2402 18.873C15.1113 19.1426 14.9883 19.4355 14.9707 19.5234C14.9355 19.6641 14.9004 19.6875 14.7305 19.6875H14.5312V17.8125V15.9375H15H15.4688V17.1621ZM22.8223 18.3691C24.0879 18.6328 25.2188 19.6758 25.623 20.9473C25.7285 21.2812 25.752 21.4922 25.752 22.0605C25.7461 22.6699 25.7227 22.8223 25.5938 23.1914C25.377 23.8008 25.1074 24.2227 24.668 24.668C24.2227 25.1133 23.6895 25.4414 23.1152 25.623C22.7812 25.7285 22.5703 25.752 22.002 25.752C21.3926 25.7461 21.2402 25.7227 20.8711 25.5937C20.2559 25.3711 19.8398 25.1074 19.3652 24.6387C18.2344 23.5137 17.9648 21.8027 18.6914 20.3555C19.4648 18.8262 21.1406 18.0176 22.8223 18.3691ZM18.6387 25.2246C19.7637 26.4082 21.3281 26.9297 22.8633 26.6367C23.877 26.4434 24.7148 25.9746 25.4473 25.2012L25.8457 24.7793L26.6309 25.2305C27.0645 25.4766 27.4219 25.6934 27.4219 25.7168C27.4219 25.8984 26.584 26.8008 26.0215 27.2168C25.1953 27.8437 24.2578 28.2715 23.2324 28.4883C22.7812 28.582 21.2812 28.582 20.8301 28.4883C19.4766 28.2012 18.2871 27.5566 17.3555 26.6133C16.9102 26.168 16.5996 25.7461 16.6582 25.6816C16.6934 25.6523 18.1758 24.791 18.2109 24.7852C18.2168 24.7852 18.4102 24.9844 18.6387 25.2246Z" fill="#ED2939"/>
<path d="M2.34375 6.09375V6.5625H2.8125H3.28125V6.09375V5.625H2.8125H2.34375V6.09375Z" fill="#ED2939"/>
<path d="M4.21875 6.09375V6.5625H7.5H10.7812V6.09375V5.625H7.5H4.21875V6.09375Z" fill="#ED2939"/>
<path d="M2.34375 7.96875V8.4375H2.8125H3.28125V7.96875V7.5H2.8125H2.34375V7.96875Z" fill="#ED2939"/>
<path d="M4.21875 7.96875V8.4375H7.5H10.7812V7.96875V7.5H7.5H4.21875V7.96875Z" fill="#ED2939"/>
<path d="M2.34375 9.84375V10.3125H2.8125H3.28125V9.84375V9.375H2.8125H2.34375V9.84375Z" fill="#ED2939"/>
<path d="M4.21875 9.84375V10.3125H7.5H10.7812V9.84375V9.375H7.5H4.21875V9.84375Z" fill="#ED2939"/>
<path d="M2.34375 11.7188V12.1875H2.8125H3.28125V11.7188V11.25H2.8125H2.34375V11.7188Z" fill="#ED2939"/>
<path d="M4.21875 11.7188V12.1875H7.5H10.7812V11.7188V11.25H7.5H4.21875V11.7188Z" fill="#ED2939"/>
<path d="M9.84375 16.875V20.625H11.25H12.6562V16.875V13.125H11.25H9.84375V16.875ZM11.7188 16.875V19.6875H11.25H10.7812V16.875V14.0625H11.25H11.7188V16.875Z" fill="#ED2939"/>
<path d="M2.34375 18.2812V20.625H3.75H5.15625V18.2812V15.9375H3.75H2.34375V18.2812ZM4.21875 18.2812V19.6875H3.75H3.28125V18.2812V16.875H3.75H4.21875V18.2812Z" fill="#ED2939"/>
<path d="M6.09375 18.75V20.625H7.5H8.90625V18.75V16.875H7.5H6.09375V18.75ZM7.96875 18.75V19.6875H7.5H7.03125V18.75V17.8125H7.5H7.96875V18.75Z" fill="#ED2939"/>
<path d="M21.334 19.3125C19.8516 19.711 18.9316 21.252 19.3066 22.7051C19.6992 24.2051 21.2344 25.1367 22.7051 24.7559C24.2051 24.3633 25.1367 22.8281 24.7559 21.3692C24.3633 19.8516 22.8047 18.9141 21.334 19.3125ZM22.916 20.3965C23.3086 20.6074 23.4902 20.7949 23.7188 21.2344C23.8477 21.4863 23.8711 21.6094 23.8711 22.0313C23.877 22.4883 23.8594 22.5586 23.6777 22.8985C23.4551 23.3086 23.2676 23.4844 22.8281 23.7188C22.5762 23.8477 22.4531 23.8711 22.0313 23.8711C21.6094 23.8711 21.4863 23.8477 21.2344 23.7188C20.7949 23.4844 20.6074 23.3086 20.3848 22.8985C20.2031 22.5586 20.1855 22.4883 20.1914 22.0313C20.1914 21.4453 20.332 21.0938 20.7129 20.7129C21.2988 20.127 22.1719 20.0039 22.916 20.3965Z" fill="#ED2939"/>
</g>
</g>
<defs>
<clipPath id="clip0_319_650">
<rect width="30" height="30" fill="white"/>
</clipPath>
<clipPath id="clip1_319_650">
<rect width="30" height="30" fill="white"/>
</clipPath>
</defs>
</svg>
