<svg width="30" height="30" viewBox="0 0 30 30" fill="none" xmlns="http://www.w3.org/2000/svg">
<g clip-path="url(#clip0_319_642)">
<path d="M0.167411 1.16742L0 1.32814V13.8572V26.3862L0.167411 26.5469L0.328125 26.7143H10.4464H20.5647L20.7254 26.5469C20.9464 26.3326 20.9464 26.0246 20.7254 25.8103L20.5647 25.6429H10.8147H1.07143V16V6.35715H15H28.9286V16.3683V26.3862L29.096 26.5469C29.3103 26.7679 29.6183 26.7679 29.8326 26.5469L30 26.3862V13.8572V1.32814L29.8326 1.16742L29.6719 1.00001H15H0.328125L0.167411 1.16742ZM8.57143 3.67858V5.28572H4.82143H1.07143V3.67858V2.07144H4.82143H8.57143V3.67858ZM28.9286 3.67858V5.28572H19.2857H9.64286V3.67858V2.07144H19.2857H28.9286V3.67858Z" fill="#ED2939"/>
<path d="M2.31028 3.31028C1.97545 3.6384 2.20983 4.21429 2.67858 4.21429C2.95313 4.21429 3.21429 3.95313 3.21429 3.67858C3.21429 3.40403 2.95313 3.14287 2.67858 3.14287C2.55135 3.14287 2.41072 3.20313 2.31028 3.31028Z" fill="#ED2939"/>
<path d="M4.45313 3.31028C4.11831 3.6384 4.35268 4.21429 4.82143 4.21429C5.09599 4.21429 5.35715 3.95313 5.35715 3.67858C5.35715 3.40403 5.09599 3.14287 4.82143 3.14287C4.6942 3.14287 4.55357 3.20313 4.45313 3.31028Z" fill="#ED2939"/>
<path d="M6.59598 3.31028C6.26116 3.6384 6.49553 4.21429 6.96428 4.21429C7.23884 4.21429 7.5 3.95313 7.5 3.67858C7.5 3.40403 7.23884 3.14287 6.96428 3.14287C6.83705 3.14287 6.69643 3.20313 6.59598 3.31028Z" fill="#ED2939"/>
<path d="M10.8817 3.31028C10.7745 3.41072 10.7143 3.55135 10.7143 3.67858C10.7143 3.80581 10.7745 3.94644 10.8817 4.04688L11.0424 4.21429H19.2857H27.529L27.6897 4.04688C27.9107 3.8326 27.9107 3.52456 27.6897 3.31028L27.529 3.14287H19.2857H11.0424L10.8817 3.31028Z" fill="#ED2939"/>
<path d="M13.8281 8.57366C13.6071 8.60715 13.1719 8.70759 12.8571 8.80804C10.4464 9.55134 8.66518 11.2857 7.875 13.6563C6.68973 17.2388 8.37723 21.1563 11.8058 22.7634C14.0424 23.8147 16.654 23.7009 18.7768 22.4554L19.2991 22.1473L19.5804 22.4219C19.8281 22.663 19.8549 22.7299 19.8348 22.9375C19.808 23.1786 19.8415 23.2121 22.4732 25.8571C25.3996 28.7902 25.4799 28.8571 26.1897 28.8571C26.8996 28.8571 27.6094 28.3147 27.7969 27.6317C27.904 27.2366 27.8304 26.6942 27.6295 26.3594C27.5424 26.2054 26.2768 24.8929 24.817 23.4397C22.2054 20.8348 22.1719 20.8013 21.9442 20.8415C21.7366 20.875 21.683 20.8482 21.4286 20.5871L21.1473 20.2991L21.4554 19.7768C22.2589 18.4107 22.6138 16.7366 22.4397 15.1964C22.1384 12.6384 20.6451 10.4688 18.375 9.30358C17.0558 8.62724 15.3616 8.35268 13.8281 8.57366ZM16.5469 9.76563C17.7187 10.067 18.6696 10.6161 19.5268 11.4732C20.3973 12.3371 20.9263 13.2746 21.2411 14.4799C21.4554 15.2902 21.4554 16.75 21.2411 17.5402C20.9062 18.779 20.4174 19.6161 19.5201 20.5201C18.6027 21.4375 17.6719 21.9665 16.433 22.2746C15.7366 22.4487 14.1295 22.4286 13.4531 22.2411C11.0625 21.5915 9.32143 19.817 8.72545 17.433C8.54464 16.7165 8.56473 15.1964 8.76563 14.4598C9.06027 13.3415 9.54911 12.4509 10.3058 11.6406C11.2835 10.5826 12.5424 9.89956 13.9955 9.64509C14.558 9.54465 15.9509 9.61161 16.5469 9.76563ZM20.7723 21.7723L20.625 21.9196L20.3906 21.692L20.1562 21.4643L20.3036 21.3103L20.4509 21.1496L20.6853 21.3906L20.9263 21.625L20.7723 21.7723ZM24.3951 24.558C26.5714 26.7344 26.7857 26.9755 26.7857 27.1763C26.7857 27.4777 26.4777 27.7857 26.1763 27.7857C25.9754 27.7857 25.7344 27.5714 23.5379 25.375L21.1272 22.9643L21.529 22.5625C21.75 22.3415 21.9442 22.1607 21.9643 22.1607C21.9844 22.1607 23.0759 23.2388 24.3951 24.558Z" fill="#ED2939"/>
<path d="M11.4174 12.4174C11.3103 12.5179 11.25 12.6585 11.25 12.7857C11.25 12.913 11.3103 13.0536 11.4174 13.154L11.5781 13.3214H15H18.4219L18.5826 13.154C18.6897 13.0536 18.75 12.913 18.75 12.7857C18.75 12.6585 18.6897 12.5179 18.5826 12.4174L18.4219 12.25H15H11.5781L11.4174 12.4174Z" fill="#ED2939"/>
<path d="M10.346 14.5603C10.2388 14.6607 10.1786 14.8013 10.1786 14.9286C10.1786 15.0558 10.2388 15.1964 10.346 15.2969L10.5067 15.4643H12.8571H15.2076L15.3683 15.2969C15.4754 15.1964 15.5357 15.0558 15.5357 14.9286C15.5357 14.8013 15.4754 14.6607 15.3683 14.5603L15.2076 14.3929H12.8571H10.5067L10.346 14.5603Z" fill="#ED2939"/>
<path d="M16.7746 14.5603C16.6674 14.6607 16.6071 14.8013 16.6071 14.9286C16.6071 15.0558 16.6674 15.1964 16.7746 15.2969C16.9353 15.4643 16.9487 15.4643 18.2143 15.4643C19.4799 15.4643 19.4933 15.4643 19.654 15.2969C19.7612 15.1964 19.8214 15.0558 19.8214 14.9286C19.8214 14.8013 19.7612 14.6607 19.654 14.5603C19.4933 14.3929 19.4799 14.3929 18.2143 14.3929C16.9487 14.3929 16.9353 14.3929 16.7746 14.5603Z" fill="#ED2939"/>
<path d="M10.346 16.7031C10.2388 16.8036 10.1786 16.9442 10.1786 17.0714C10.1786 17.1987 10.2388 17.3393 10.346 17.4397C10.5067 17.6071 10.5201 17.6071 11.7857 17.6071C13.0513 17.6071 13.0647 17.6071 13.2254 17.4397C13.3326 17.3393 13.3929 17.1987 13.3929 17.0714C13.3929 16.9442 13.3326 16.8036 13.2254 16.7031C13.0647 16.5357 13.0513 16.5357 11.7857 16.5357C10.5201 16.5357 10.5067 16.5357 10.346 16.7031Z" fill="#ED2939"/>
<path d="M14.6317 16.7031C14.5245 16.8036 14.4643 16.9442 14.4643 17.0714C14.4643 17.1987 14.5245 17.3393 14.6317 17.4397L14.7924 17.6071H17.1429H19.4933L19.654 17.4397C19.7612 17.3393 19.8214 17.1987 19.8214 17.0714C19.8214 16.9442 19.7612 16.8036 19.654 16.7031L19.4933 16.5357H17.1429H14.7924L14.6317 16.7031Z" fill="#ED2939"/>
<path d="M11.4174 18.846C11.3103 18.9464 11.25 19.0871 11.25 19.2143C11.25 19.3415 11.3103 19.4821 11.4174 19.5826L11.5781 19.75H13.3929H15.2076L15.3683 19.5826C15.4754 19.4821 15.5357 19.3415 15.5357 19.2143C15.5357 19.0871 15.4754 18.9464 15.3683 18.846L15.2076 18.6786H13.3929H11.5781L11.4174 18.846Z" fill="#ED2939"/>
<path d="M16.7746 18.846C16.6674 18.9464 16.6071 19.0871 16.6071 19.2143C16.6071 19.3415 16.6674 19.4821 16.7746 19.5826C16.9286 19.7433 16.9821 19.75 17.6786 19.75C18.375 19.75 18.4286 19.7433 18.5826 19.5826C18.6897 19.4821 18.75 19.3415 18.75 19.2143C18.75 19.0871 18.6897 18.9464 18.5826 18.846C18.4286 18.6853 18.375 18.6786 17.6786 18.6786C16.9821 18.6786 16.9286 18.6853 16.7746 18.846Z" fill="#ED2939"/>
<path d="M3.38169 14.0245L3.21428 14.1853V16V17.8147L3.38169 17.9754C3.5424 18.1429 3.5558 18.1429 4.82142 18.1429C6.08705 18.1429 6.10044 18.1429 6.26115 17.9754C6.48214 17.7612 6.48214 17.4531 6.26115 17.2388C6.10714 17.0781 6.06696 17.0714 5.18973 17.0714H4.28571V16V14.9286H5.18973C6.06696 14.9286 6.10714 14.9219 6.26115 14.7612C6.3683 14.6607 6.42856 14.5201 6.42856 14.3929C6.42856 14.2656 6.3683 14.125 6.26115 14.0245C6.10044 13.8571 6.08705 13.8571 4.82142 13.8571C3.5558 13.8571 3.5424 13.8571 3.38169 14.0245Z" fill="#ED2939"/>
<path d="M23.7388 14.0245C23.6317 14.125 23.5714 14.2656 23.5714 14.3929C23.5714 14.5201 23.6317 14.6607 23.7388 14.7612C23.8929 14.9219 23.933 14.9286 24.8103 14.9286H25.7143V16V17.0714H24.8103C23.933 17.0714 23.8929 17.0781 23.7388 17.2388C23.6317 17.3393 23.5714 17.4799 23.5714 17.6071C23.5714 17.7344 23.6317 17.875 23.7388 17.9754C23.8996 18.1429 23.9129 18.1429 25.1786 18.1429C26.4442 18.1429 26.4576 18.1429 26.6183 17.9754L26.7857 17.8147V16V14.1853L26.6183 14.0245C26.4576 13.8571 26.4442 13.8571 25.1786 13.8571C23.9129 13.8571 23.8996 13.8571 23.7388 14.0245Z" fill="#ED2939"/>
</g>
<defs>
<clipPath id="clip0_319_642">
<rect width="30" height="30" fill="white"/>
</clipPath>
</defs>
</svg>
