<svg width="30" height="30" viewBox="0 0 30 30" fill="none" xmlns="http://www.w3.org/2000/svg">
<path opacity="0.992" fill-rule="evenodd" clip-rule="evenodd" d="M2.07589 4.00419C10.692 3.99302 19.3081 4.00419 27.9241 4.03767C29.0067 4.31669 29.6875 4.99747 29.9665 6.08008C30.0112 12.1961 30.0112 18.3122 29.9665 24.4283C29.6875 25.5109 29.0067 26.1916 27.9241 26.4707C19.308 26.5154 10.692 26.5154 2.07589 26.4707C0.993302 26.1916 0.312504 25.5109 0.0334838 24.4283C-0.0111613 18.3122 -0.0111613 12.1961 0.0334838 6.08008C0.324705 4.99653 1.00551 4.30453 2.07589 4.00419ZM2.67857 5.07561C10.8929 5.06443 19.1072 5.07561 27.3214 5.1091C28.4948 5.31287 29.0305 6.01599 28.9286 7.21847C19.6428 7.21847 10.3572 7.21847 1.07143 7.21847C0.983968 6.01385 1.51968 5.29954 2.67857 5.07561ZM1.07143 8.2899C10.3572 8.2899 19.6428 8.2899 28.9286 8.2899C28.9397 13.4685 28.9286 18.6471 28.8951 23.8256C28.7723 24.7519 28.2477 25.2765 27.3214 25.3993C19.1071 25.4439 10.8929 25.4439 2.67857 25.3993C1.75224 25.2765 1.22768 24.7519 1.10491 23.8256C1.07143 18.6471 1.06027 13.4685 1.07143 8.2899Z" fill="#ED2939"/>
<path opacity="0.892" fill-rule="evenodd" clip-rule="evenodd" d="M2.41071 5.61132C3.17141 5.55842 3.39462 5.88205 3.08035 6.5823C2.37483 6.84996 2.07349 6.61558 2.17634 5.87917C2.22252 5.75529 2.30065 5.66596 2.41071 5.61132Z" fill="#ED2939"/>
<path opacity="0.892" fill-rule="evenodd" clip-rule="evenodd" d="M4.55356 5.61132C5.31428 5.55842 5.53747 5.88205 5.22321 6.5823C4.51768 6.84996 4.21634 6.61558 4.31919 5.87917C4.36537 5.75529 4.4435 5.66596 4.55356 5.61132Z" fill="#ED2939"/>
<path opacity="0.892" fill-rule="evenodd" clip-rule="evenodd" d="M6.69642 5.61132C7.45713 5.55842 7.68032 5.88205 7.36606 6.5823C6.66053 6.84996 6.35919 6.61558 6.46204 5.87917C6.50825 5.75529 6.58633 5.66596 6.69642 5.61132Z" fill="#ED2939"/>
<path opacity="0.922" fill-rule="evenodd" clip-rule="evenodd" d="M17.3437 10.4328C18.1517 10.3535 18.4084 10.6884 18.1138 11.4372C16.3411 15.3491 14.5553 19.2554 12.7567 23.156C11.886 23.4458 11.5959 23.1556 11.8862 22.2854C13.6707 18.3147 15.49 14.3638 17.3437 10.4328Z" fill="#ED2939"/>
<path opacity="0.918" fill-rule="evenodd" clip-rule="evenodd" d="M9.57589 12.5086C10.1714 12.633 10.3388 12.9678 10.0781 13.5131C9.0918 14.5997 8.14312 15.7158 7.23214 16.8613C8.14312 18.0069 9.0918 19.123 10.0781 20.2095C10.3388 20.7152 10.1938 21.0501 9.64285 21.214C9.45093 21.1683 9.28352 21.079 9.14062 20.9461C8.09149 19.7185 7.04243 18.4908 5.9933 17.2631C5.85937 16.9952 5.85937 16.7274 5.9933 16.4595C7.04243 15.2319 8.09149 14.0041 9.14062 12.7765C9.27542 12.6594 9.42053 12.5701 9.57589 12.5086Z" fill="#ED2939"/>
<path opacity="0.918" fill-rule="evenodd" clip-rule="evenodd" d="M20.2902 12.5086C20.5075 12.5401 20.6972 12.6294 20.8594 12.7765C21.9085 14.0041 22.9576 15.2319 24.0067 16.4595C24.1406 16.7274 24.1406 16.9952 24.0067 17.2631C22.9576 18.4908 21.9085 19.7185 20.8594 20.9461C20.5782 21.2325 20.2768 21.266 19.9554 21.0466C19.7063 20.7764 19.6952 20.4973 19.9219 20.2095C20.9082 19.123 21.8569 18.0069 22.7679 16.8613C21.8569 15.7158 20.9082 14.5997 19.9219 13.5131C19.6698 13.0358 19.7926 12.701 20.2902 12.5086Z" fill="#ED2939"/>
</svg>
