<svg width="30" height="30" viewBox="0 0 30 30" fill="none" xmlns="http://www.w3.org/2000/svg">
<g clip-path="url(#clip0_319_644)">
<g clip-path="url(#clip1_319_644)">
<path d="M10.002 0.0878906C9.65625 0.216797 9.33984 0.498047 9.17578 0.832031L9.02344 1.13672V3.55664V5.97656H8.52539C7.76953 5.97656 7.42383 6.18164 7.51758 6.57422C7.60547 6.90234 7.68164 6.94336 8.36133 6.97266L8.99414 7.00195L9.01172 10.5L9.02344 14.0039H7.00195H4.98047V13.4004C4.98047 12.8438 4.96875 12.7852 4.8457 12.6738C4.65234 12.498 4.5293 12.4746 4.3125 12.5625C4.06055 12.668 3.98437 12.8848 3.98437 13.5117V14.0039H2.5957C1.25391 14.0039 1.18945 14.0098 0.908203 14.1445C0.568359 14.3027 0.328125 14.5254 0.152344 14.8535L0.0292969 15.0879V22.002V28.916L0.158203 29.1504C0.304687 29.4258 0.591797 29.707 0.878906 29.8594C1.07812 29.9648 1.37695 29.9707 8.49609 29.9707H15.9082L16.1484 29.8418C16.6934 29.5488 16.9453 29.1328 16.9805 28.459L17.0039 28.0078H17.5195C18.1406 28.0078 18.3047 27.9551 18.4277 27.7207C18.5391 27.498 18.4922 27.2812 18.2988 27.1289C18.1699 27.0293 18.0586 27.0117 17.5723 27.0117H16.9922V25.0195V23.0273H20.5078H24.0234V23.6133C24.0234 24.1641 24.0352 24.2168 24.1699 24.3457C24.3516 24.5332 24.6094 24.5332 24.8262 24.3516C24.9785 24.2227 24.9844 24.1816 25.0078 23.625L25.0312 23.0332L26.918 23.0156C28.7578 22.998 28.8047 22.9922 29.1094 22.8574C29.2793 22.7812 29.5078 22.6113 29.6191 22.4824C30.0293 22.002 30.0059 22.8164 29.9883 11.3965C29.9707 1.46484 29.9648 1.07812 29.8594 0.878906C29.707 0.591797 29.4258 0.304688 29.1504 0.158203L28.916 0.0292969L19.5703 0.0175781C11.6602 0.0117188 10.1895 0.0175781 10.002 0.0878906ZM28.834 1.16602L29.0039 1.33594V9.38086C29.0039 13.8047 28.9922 17.4082 28.9805 17.3965C28.9687 17.3848 28.2539 16.0078 27.3926 14.3438C26.5371 12.6738 25.7578 11.2148 25.6699 11.0918C25.1719 10.4004 24.0703 10.3301 23.4551 10.9453C23.291 11.1094 22.9922 11.6543 21.7969 13.9629L21.2578 15.0117L21.0937 14.7246C20.707 14.0625 20.168 13.8457 19.582 14.127C19.248 14.291 19.2246 14.3379 18.0176 16.6758L17.0215 18.6035L16.9922 17.9473C16.9687 17.3672 16.9453 17.2734 16.834 17.1562C16.6582 16.9805 16.3301 16.9805 16.1543 17.1562L16.0254 17.291L15.9961 21.334L15.9668 25.377L15.123 23.748C14.6602 22.8516 14.2207 22.0371 14.1445 21.9375C13.9687 21.7031 13.5645 21.5039 13.2656 21.5039C12.9668 21.5098 12.6035 21.6738 12.416 21.8965C12.334 21.9961 11.9121 22.7578 11.4785 23.6016C11.0508 24.4395 10.6758 25.1133 10.6582 25.1016C10.6348 25.0898 10.5117 24.8906 10.3711 24.668C10.2305 24.4277 10.0488 24.1992 9.94336 24.1348C9.69726 23.9883 9.28125 23.9883 9.05273 24.1406C8.9414 24.2168 8.5957 24.7266 8.05078 25.6172L7.22461 26.9824L4.11328 27L0.996094 27.0117V21.1758V15.3398L1.16602 15.1699L1.33594 15H7.5H13.6641L13.834 14.8301C14.0566 14.6074 14.0566 14.3965 13.834 14.1738L13.6641 14.0039H11.8418H10.0195V7.6582C10.0254 0.978516 10.0137 1.21875 10.2832 1.06641C10.3711 1.01953 12.7734 1.00195 19.5293 0.996094H28.6641L28.834 1.16602ZM24.7148 11.5664C24.8437 11.6367 25.2422 12.3574 26.7656 15.2988C27.8027 17.3086 28.6406 18.9551 28.6289 18.9668C28.623 18.9785 26.7539 18.9785 24.4805 18.9727L20.3437 18.9551L22.1953 15.375C23.2207 13.4062 24.0937 11.748 24.1406 11.6895C24.2168 11.5957 24.3984 11.4961 24.5098 11.4902C24.5332 11.4844 24.6269 11.5195 24.7148 11.5664ZM20.4258 15.5918L20.6894 16.1191L19.9453 17.5488L19.207 18.9844H18.5918C18.0293 18.9844 17.9766 18.9727 18.0117 18.8789C18.0762 18.7148 19.9277 15.1523 19.9922 15.0762C20.0859 14.959 20.1387 15.0293 20.4258 15.5918ZM29.0039 20.7715C29.0039 21.5977 28.9453 21.8555 28.7402 21.9375C28.6875 21.9551 26.0215 21.9727 22.8164 21.9727H16.9922V20.9766V19.9805H22.998H29.0039V20.7715ZM14.502 24.7266C15.1289 25.9336 15.6445 26.9414 15.6445 26.9648C15.6445 26.9941 14.5781 27.0117 13.2715 27.0117C11.877 27.0117 10.8984 26.9883 10.8984 26.959C10.8984 26.918 13.0312 22.752 13.1602 22.5469C13.1777 22.5176 13.2305 22.5 13.2832 22.5117C13.3301 22.5234 13.8809 23.5195 14.502 24.7266ZM9.82617 25.6992L10.1367 26.1973L9.93164 26.6074L9.72656 27.0117H9.05273H8.38476L8.92383 26.1035C9.22265 25.6055 9.47461 25.1953 9.49219 25.1953C9.50976 25.1953 9.66211 25.4238 9.82617 25.6992ZM15.9961 28.3359C15.9961 28.6172 15.9727 28.6816 15.8262 28.834L15.6562 29.0039H8.49609H1.33594L1.16602 28.834C1.01953 28.6816 0.996094 28.6172 0.996094 28.3359V28.0078H8.49609H15.9961V28.3359Z" fill="#ED2939"/>
<path d="M13.3887 2.03321C12.5273 2.15625 11.7187 2.71875 11.3379 3.45703C10.7695 4.57032 10.9629 5.81836 11.8418 6.69141C12.668 7.52344 13.8926 7.7168 14.9707 7.1836C16.3945 6.48047 16.9102 4.71094 16.0898 3.31641C15.7324 2.70117 14.9297 2.17383 14.1797 2.05664C13.793 1.99219 13.7051 1.99219 13.3887 2.03321ZM14.4668 3.16992C14.7949 3.31055 15.0762 3.57422 15.2812 3.92578C15.4219 4.16016 15.4394 4.24805 15.4394 4.7461C15.4394 5.20313 15.416 5.34375 15.3105 5.53711C14.8652 6.36914 13.8223 6.71485 12.9961 6.31055C12.4336 6.03516 12.0762 5.51368 12.0293 4.89258C11.9941 4.45313 12.0762 4.13672 12.3223 3.77344C12.791 3.07032 13.6816 2.81836 14.4668 3.16992Z" fill="#ED2939"/>
<path d="M21.1113 3.60352C20.2207 3.87891 19.582 4.68164 19.5234 5.60742C19.5 5.95312 19.4766 6.03516 19.4004 6.03516C19.2188 6.04102 18.8145 6.26367 18.5566 6.49805C18.1934 6.83203 18.0234 7.24219 18.0234 7.76953C18.0234 8.50781 18.4453 9.11133 19.1426 9.375C19.4414 9.48633 19.5996 9.49219 22.2598 9.49219C25.377 9.49219 25.4121 9.48633 26.0039 9.09961C26.7129 8.625 27.1113 7.71094 26.959 6.89648C26.7832 5.93555 26.0742 5.22656 25.1074 5.03906C24.7676 4.97461 24.3164 5.00977 24.0176 5.12695C23.9473 5.15039 23.9004 5.09766 23.8242 4.91016C23.4258 3.87891 22.1602 3.26953 21.1113 3.60352ZM22.3887 4.68164C22.7578 4.89844 22.9277 5.20898 22.9688 5.75391C22.998 6.17578 23.0156 6.24023 23.1621 6.36328C23.3906 6.55664 23.6016 6.53906 23.9355 6.29883C24.5566 5.85938 25.2598 5.93555 25.7109 6.48047C26.2148 7.08984 26.0039 8.02148 25.2949 8.35547L24.9902 8.49609H22.2715C19.6523 8.49609 19.5469 8.49023 19.3652 8.37891C18.9316 8.10938 18.8848 7.57617 19.2598 7.22461C19.4414 7.05469 19.5 7.03125 19.7988 7.03125C20.2617 7.03125 20.4785 6.94336 20.5898 6.71484C20.666 6.55078 20.666 6.49219 20.584 6.16406C20.4668 5.68945 20.5195 5.34961 20.7598 5.02148C21.0352 4.6582 21.3867 4.49414 21.8262 4.5293C22.043 4.54688 22.2598 4.60547 22.3887 4.68164Z" fill="#ED2939"/>
<path d="M16.7754 13.4355C16.7109 13.4766 15.832 14.5254 14.8359 15.7734C13.2363 17.7773 13.0137 18.0293 12.9844 17.9004C12.8906 17.5254 12.4277 17.3965 12.1582 17.666C12.0176 17.8066 12.0117 17.8242 12.0117 18.75C12.0117 19.6758 12.0176 19.6934 12.1582 19.834C12.2988 19.9746 12.3223 19.9805 13.2305 19.9805C14.0859 19.9805 14.1797 19.9688 14.3203 19.8574C14.4375 19.7637 14.4727 19.6875 14.4727 19.5234C14.4668 19.166 14.2383 18.9844 13.793 18.9844C13.6816 18.9844 13.5938 18.9727 13.5938 18.9551C13.5938 18.9375 14.4492 17.8594 15.498 16.5527C16.5469 15.252 17.4316 14.1152 17.4668 14.0273C17.543 13.8105 17.4375 13.5586 17.2207 13.4473C17.0215 13.3418 16.9453 13.3418 16.7754 13.4355Z" fill="#ED2939"/>
<path d="M3.55664 16.0547C2.4668 16.3301 1.80469 17.4024 2.07422 18.4629C2.46094 19.9863 4.29492 20.502 5.39649 19.4004C5.8418 18.9492 6 18.5449 5.96485 17.9004C5.93555 17.3496 5.75977 16.9512 5.38477 16.5762C4.93945 16.1309 4.14844 15.9082 3.55664 16.0547ZM4.43555 17.1152C4.80469 17.2969 5.00391 17.6543 4.96875 18.082C4.92188 18.6094 4.60547 18.9258 4.07813 18.9727C3.53906 19.0137 3.09961 18.668 3.01758 18.1289C2.94727 17.7129 3.1875 17.291 3.60352 17.1035C3.9082 16.9629 4.125 16.9629 4.43555 17.1152Z" fill="#ED2939"/>
<path d="M5.2207 6.04103C4.41797 6.19923 3.91992 6.94923 3.99609 7.90431C4.01953 8.16212 4.05469 8.25001 4.18359 8.36134C4.38867 8.53712 4.62891 8.53126 4.82812 8.34962C4.95703 8.22657 4.98047 8.16212 4.98047 7.86329C4.98047 7.20118 5.12109 7.03712 5.70703 6.99025C6.26367 6.94923 6.32226 6.92579 6.42773 6.709C6.50976 6.53907 6.50976 6.48634 6.44531 6.32228C6.31055 6.01173 5.88867 5.91212 5.2207 6.04103Z" fill="#ED2939"/>
<path d="M4.27734 9.56835C4.03125 9.6914 3.97851 9.87304 3.99609 10.5586C4.01367 11.1269 4.02539 11.1973 4.1543 11.332C4.34765 11.5371 4.64062 11.5371 4.83398 11.3379C4.97461 11.2031 4.98047 11.1621 4.98047 10.5059C4.97461 9.78515 4.95117 9.6914 4.70508 9.56249C4.54687 9.4746 4.45898 9.4746 4.27734 9.56835Z" fill="#ED2939"/>
<path d="M24.3223 25.5527C24.0996 25.6406 24.0293 25.7871 24.0234 26.1387C24.0234 26.8125 23.8359 27.0117 23.1855 27.0117C22.8926 27.0117 22.7871 27.0352 22.6875 27.1289C22.5117 27.293 22.4648 27.5273 22.5645 27.709C22.6875 27.9258 22.8867 28.0078 23.2969 28.0078C24.293 28.0078 24.9082 27.4629 24.9961 26.4961C25.043 25.9922 24.9551 25.6934 24.7266 25.5762C24.5332 25.4766 24.5156 25.4766 24.3223 25.5527Z" fill="#ED2939"/>
<path d="M19.6582 27.1582C19.459 27.3516 19.459 27.6445 19.6641 27.8379C19.7988 27.9668 19.8691 27.9785 20.4375 27.9961C21.1348 28.0137 21.3105 27.9609 21.4336 27.6914C21.5332 27.498 21.4863 27.2871 21.3164 27.1289C21.2051 27.0234 21.1113 27.0117 20.4961 27.0117C19.834 27.0117 19.793 27.0176 19.6582 27.1582Z" fill="#ED2939"/>
</g>
</g>
<defs>
<clipPath id="clip0_319_644">
<rect width="30" height="30" fill="white"/>
</clipPath>
<clipPath id="clip1_319_644">
<rect width="30" height="30" fill="white"/>
</clipPath>
</defs>
</svg>
