<svg width="30" height="30" viewBox="0 0 30 30" fill="none" xmlns="http://www.w3.org/2000/svg">
<g clip-path="url(#clip0_319_645)">
<g clip-path="url(#clip1_319_645)">
<path d="M14.7363 0.298828C14.2969 0.451172 13.8223 0.767578 13.5703 1.07812C13.459 1.20703 13.0488 1.88086 12.6563 2.56055L11.9355 3.80859H7.125C1.875 3.80859 1.92773 3.80273 1.34766 4.14258C0.703125 4.52344 0.199219 5.22656 0.0585938 5.94727C0.0117188 6.20508 3.09531e-08 8.66016 0.0117188 14.9414L0.0292969 23.584L0.158203 23.9004C0.46875 24.6504 1.01367 25.207 1.74609 25.5L2.08008 25.6348L6.48047 25.6523L10.8809 25.6699L10.916 26.1094C10.9512 26.5781 10.8809 27.6738 10.7813 28.2715C10.752 28.4648 10.7227 28.6289 10.7227 28.6348C10.7227 28.6465 9.97266 28.6523 9.05273 28.6523C7.25977 28.6523 7.05469 28.6816 6.91406 28.9453C6.79102 29.1797 6.82617 29.4668 7.00781 29.6543L7.17188 29.8242H15H22.8281L22.9922 29.6543C23.1738 29.4668 23.209 29.1797 23.0859 28.9453C22.9453 28.6816 22.7402 28.6523 20.9297 28.6523H19.2363L19.166 28.2246C19.0488 27.498 18.9844 26.543 19.0254 26.0977L19.0605 25.6699L23.4902 25.6523L27.9199 25.6348L28.2422 25.5059C28.9805 25.2012 29.543 24.6387 29.8359 23.918L29.9707 23.584L29.9883 14.625C30.0059 4.66992 30.0293 5.32031 29.6133 4.70508C29.373 4.35352 28.9102 4.01367 28.5059 3.89648C28.2656 3.82031 27.416 3.80859 23.1094 3.80859H17.9883L18.0469 3.66211C18.3574 2.84766 18.1348 1.72852 17.5313 1.04883C16.8457 0.28125 15.6914 -0.0292969 14.7363 0.298828ZM16.0957 1.43555C16.7637 1.7168 17.1211 2.36719 16.9863 3.06445C16.9512 3.27539 16.5879 4.01953 16.4297 4.21289C16.4238 4.22461 15.8438 3.9082 15.1523 3.50977L13.8926 2.7832L14.1035 2.40234C14.3613 1.92773 14.666 1.59961 14.9707 1.45898C15.2578 1.32422 15.8027 1.3125 16.0957 1.43555ZM14.6777 4.58203C15.293 4.93945 15.7969 5.23242 15.8086 5.24414C15.8262 5.25586 11.0977 13.4707 11.0391 13.5293C11.0273 13.541 10.4531 13.2305 9.75586 12.832L8.49609 12.1055L8.63672 11.8711C8.71289 11.7363 9.75586 9.93164 10.957 7.85156C12.1523 5.77148 13.1719 4.01367 13.2188 3.9375C13.3184 3.7793 13.166 3.71484 14.6777 4.58203ZM11.1152 5.22656C9.65039 7.75195 7.23047 11.9707 7.16602 12.1172C7.10156 12.2754 7.08984 12.7207 7.10156 14.4844L7.11914 16.6523L7.3125 16.8223L7.5 16.9922H14.9941H22.4883L22.6641 16.8457C22.8691 16.6758 22.9277 16.4414 22.8281 16.2012C22.6699 15.8262 23.1504 15.8496 16.248 15.8203L9.96094 15.791L10.8164 15.2871L11.6777 14.7891L14.502 9.89648L17.3203 5.00977L22.7461 4.99219L28.166 4.98047L28.3594 5.10938C28.4648 5.18555 28.6113 5.32031 28.6758 5.4082L28.7988 5.57227L28.8164 12.9844L28.8281 20.3906H15H1.17188L1.18359 13.2246L1.20117 6.05859L1.34766 5.77734C1.51758 5.44922 1.81641 5.18555 2.14453 5.06836C2.33203 4.99805 3.19336 4.98633 6.81445 4.98047H11.2617L11.1152 5.22656ZM9.19336 13.8574C9.65039 14.1152 10.0195 14.3438 10.0195 14.3613C10.0195 14.4082 8.39063 15.3516 8.31445 15.3516C8.28516 15.3516 8.26172 14.9121 8.26172 14.3496C8.26172 13.752 8.28516 13.3594 8.31445 13.3711C8.34961 13.377 8.74219 13.5996 9.19336 13.8574ZM28.8164 22.4824C28.7988 23.2441 28.7754 23.4434 28.6875 23.6133C28.5352 23.9004 28.2539 24.1875 27.9785 24.334L27.7441 24.4629H15H2.25586L2.02148 24.334C1.71094 24.1699 1.44141 23.877 1.29492 23.5547C1.18945 23.3262 1.17188 23.168 1.17188 22.4238V21.5625H15.0059H28.8398L28.8164 22.4824ZM17.8535 26.5254C17.8594 27.0059 17.9004 27.668 17.9531 28.002C18.0059 28.3418 18.0469 28.623 18.0469 28.6348C18.0469 28.6465 16.6582 28.6523 14.9648 28.6523C12.0586 28.6523 11.8887 28.6465 11.918 28.5469C12 28.2715 12.082 27.2988 12.082 26.5254L12.0879 25.6641H14.9648H17.8477L17.8535 26.5254Z" fill="#ED2939"/>
<path d="M15.8496 12.4336C15.6504 12.6094 15.5918 12.9492 15.7324 13.1602C15.9375 13.4707 15.9727 13.4766 19.2891 13.4766C22.0898 13.4766 22.3711 13.4648 22.5586 13.3711C22.9102 13.1953 22.9805 12.7383 22.6934 12.4512L22.541 12.3047H19.2715H16.002L15.8496 12.4336Z" fill="#ED2939"/>
</g>
</g>
<defs>
<clipPath id="clip0_319_645">
<rect width="30" height="30" fill="white"/>
</clipPath>
<clipPath id="clip1_319_645">
<rect width="30" height="30" fill="white"/>
</clipPath>
</defs>
</svg>
