<svg width="30" height="30" viewBox="0 0 30 30" fill="none" xmlns="http://www.w3.org/2000/svg">
<g clip-path="url(#clip0_319_646)">
<path d="M6.63867 1.58789C6.35742 1.72852 6.05859 2.03906 5.94141 2.32031C5.87695 2.47266 5.85938 2.92383 5.85938 4.33594V6.15234H4.58789C3.88477 6.15234 3.19922 6.18164 3.05859 6.21094C2.39063 6.36914 1.76367 6.87305 1.47656 7.48242L1.31836 7.82227V15.4102V22.998L1.48242 23.3496C1.6875 23.7949 2.09766 24.2168 2.54883 24.4512L2.90039 24.6387L7.01953 24.6562C9.28125 24.6621 11.1328 24.6914 11.1328 24.7148C11.1328 24.7383 10.8691 25.4414 10.5527 26.2793L9.97266 27.8027L9.05274 27.832C8.23242 27.8555 8.12695 27.873 8.05078 27.9727C7.93945 28.1309 7.94531 28.3242 8.07422 28.4355C8.17383 28.5293 8.66016 28.5352 13.8457 28.5352H19.5059L19.5938 28.4062C19.7109 28.2422 19.7109 28.1191 19.6055 27.9727C19.5293 27.873 19.4238 27.8555 18.5977 27.832L17.6777 27.8027L17.127 26.3672C16.8281 25.5762 16.5645 24.873 16.5469 24.8027L16.5117 24.668L20.6016 24.6562L24.6973 24.6387L25.0313 24.4805C25.5 24.2637 25.9219 23.8535 26.1504 23.3848L26.3379 22.998V18.5215V14.0391L26.1797 13.9453C26.0332 13.8691 25.9981 13.8691 25.8574 13.9453L25.6934 14.0391L25.6758 17.5664L25.6641 21.0938H24.2578H22.8516V19.5293C22.8516 18.2754 22.8691 17.9473 22.9336 17.877C22.9805 17.8242 24.2871 15.5156 25.8398 12.7441C29.0156 7.07812 28.916 7.30078 28.5293 6.89648C28.2305 6.58008 26.7949 5.80078 26.5137 5.80078C26.2031 5.80078 25.9453 5.98242 25.752 6.33984C25.6641 6.50977 25.582 6.65625 25.5762 6.66797C25.5703 6.67383 25.4121 6.5918 25.2305 6.48047C24.791 6.2168 24.4688 6.15234 23.584 6.15234H22.8516V5.70117V5.25L20.9648 3.35742L19.0723 1.46484H12.9785C6.91406 1.46484 6.88477 1.46484 6.63867 1.58789ZM18.5742 3.3457C18.5742 4.74023 18.6094 4.89844 18.9902 5.28516C19.3887 5.68359 19.6348 5.74219 20.9883 5.74219H22.0898V7.96875V10.2012L22.2363 10.3418C22.418 10.5234 22.5234 10.5234 22.7051 10.3418L22.8516 10.2012V8.51953V6.84375L23.6602 6.86719C24.5039 6.89062 24.8613 6.98438 25.0898 7.24219C25.1836 7.35352 25.084 7.54688 22.6816 11.8418L20.168 16.3242L20.0742 17.7012C20.0215 18.4629 19.9805 19.166 19.9805 19.2656C19.9805 19.4766 20.1563 19.6875 20.3262 19.6875C20.3848 19.6875 20.8066 19.4238 21.2695 19.1016C21.7266 18.7793 22.1133 18.5156 22.125 18.5156C22.1367 18.5156 22.1484 19.0957 22.1484 19.8047V21.0938H14.3555H6.5625L6.57422 11.8418L6.5918 2.58984L6.73828 2.43164C6.82031 2.34375 6.9375 2.25 7.00195 2.22656C7.06641 2.19727 9.69727 2.17383 12.8496 2.17383L18.5742 2.16797V3.3457ZM20.6836 4.96875C19.3301 4.99219 19.2773 4.93945 19.2773 3.5332V2.66602L20.4199 3.80859L21.5625 4.95117L20.6836 4.96875ZM27.5508 7.0957L28.0078 7.34766L27.7676 7.78711C27.6328 8.0332 27.5039 8.25586 27.4805 8.2793C27.4453 8.32031 26.1328 7.63477 25.9981 7.50586C25.9746 7.48242 26.0742 7.24219 26.2266 6.97852L26.4961 6.49805L26.7949 6.66797C26.9648 6.76172 27.3047 6.95508 27.5508 7.0957ZM5.83008 13.9746V21.0645L3.9082 21.082L1.99219 21.0938L2.00391 14.5488C2.02148 7.20117 1.98047 7.85742 2.45508 7.36523C2.88281 6.91406 3.09961 6.86133 4.6582 6.87305L5.83008 6.88477V13.9746ZM26.3672 8.55469L27.1172 8.9707L24.9141 12.9082C23.707 15.0762 22.6816 16.8809 22.6406 16.9277C22.5762 16.998 22.5352 16.9805 22.3477 16.8164C22.1367 16.6348 21.4746 16.2832 21.2109 16.2129C21.0879 16.1836 21.0938 16.166 21.3106 15.7793C22.9746 12.791 25.582 8.14453 25.5996 8.14453C25.6113 8.14453 25.957 8.33203 26.3672 8.55469ZM21.3574 17.0508C21.6328 17.1738 22.0898 17.4961 22.0898 17.5723C22.0898 17.6016 21.9141 17.7539 21.6973 17.9062C21.4746 18.0586 21.1699 18.2754 21.0176 18.3867L20.7305 18.5918L20.7656 18.041C20.7891 17.7363 20.8184 17.3496 20.8359 17.1797C20.8711 16.834 20.8711 16.834 21.3574 17.0508ZM25.6523 22.2891C25.6231 22.8809 25.4238 23.3379 25.0781 23.6133C24.6035 23.9883 25.3945 23.9648 13.7109 23.9531L3.07617 23.9355L2.80078 23.7773C2.25 23.4492 1.99219 22.9512 1.99219 22.1953V21.7969H13.834H25.6816L25.6523 22.2891ZM16.3066 26.2559C16.6289 27.0938 16.875 27.791 16.8633 27.8086C16.8457 27.8203 15.4629 27.8262 13.793 27.8203L10.7461 27.8027L11.332 26.2617L11.918 24.7266H13.8223H15.7324L16.3066 26.2559Z" fill="#ED2939"/>
<path d="M12.3457 3.79688C12.2109 3.94336 12.2227 4.13672 12.3633 4.27734C12.4746 4.38867 12.5566 4.39453 15.0938 4.39453C16.6758 4.39453 17.7422 4.37109 17.8125 4.33594C17.9648 4.25391 18.0117 4.00195 17.9004 3.83203L17.8125 3.69141H15.123C12.5977 3.69141 12.4336 3.69727 12.3457 3.79688Z" fill="#ED2939"/>
<path d="M7.36524 5.73047C7.23633 5.87109 7.24219 6.11133 7.3711 6.22852C7.47071 6.32227 7.92188 6.32812 12.6152 6.32812C17.6777 6.32812 17.7539 6.32812 17.8711 6.21094C17.9356 6.14648 17.9883 6.04102 17.9883 5.97656C17.9883 5.91211 17.9356 5.80664 17.8711 5.74219C17.7539 5.625 17.6777 5.625 12.6094 5.625C7.69336 5.625 7.45313 5.63086 7.36524 5.73047Z" fill="#ED2939"/>
<path d="M7.36523 7.95703C7.27734 8.05078 7.26562 8.27344 7.26562 9.84961C7.26562 11.3027 7.2832 11.6602 7.34766 11.7539C7.42969 11.8652 7.57031 11.8652 14.3262 11.8652H21.2227L21.334 11.7246C21.4395 11.5957 21.4453 11.4727 21.4453 9.84961C21.4453 8.37305 21.4336 8.0918 21.3516 7.98047L21.2637 7.85156H14.3613C7.75195 7.85156 7.45313 7.85742 7.36523 7.95703ZM20.6836 9.84375V11.1328H14.3262H7.96875V9.84375V8.55469H14.3262H20.6836V9.84375Z" fill="#ED2939"/>
<path d="M9.76758 9.5625C9.60352 9.69141 9.58008 9.93164 9.72071 10.0723C9.84376 10.1953 9.86133 10.1953 14.3438 10.1953C18.6328 10.1953 18.8555 10.1895 18.9434 10.0898C19.0781 9.94336 19.0664 9.75 18.9258 9.60938C18.8086 9.49219 18.7324 9.49219 14.3379 9.49219C10.8516 9.49219 9.84376 9.50977 9.76758 9.5625Z" fill="#ED2939"/>
<path d="M7.39453 13.043C7.26562 13.1309 7.26562 13.1367 7.26562 14.9707C7.26562 16.8047 7.26562 16.8105 7.39453 16.8984C7.50586 16.9805 7.79297 16.9922 9.35742 16.9922C11.1152 16.9922 11.1973 16.9863 11.3086 16.875C11.4199 16.7637 11.4258 16.6816 11.4258 14.9707C11.4258 13.2598 11.4199 13.1777 11.3086 13.0664C11.1973 12.9551 11.1152 12.9492 9.35742 12.9492C7.79297 12.9492 7.50586 12.9609 7.39453 13.043ZM10.7109 14.9824L10.6934 16.2598L9.33398 16.2773L7.96875 16.2891V15V13.7109H9.3457H10.7227L10.7109 14.9824Z" fill="#ED2939"/>
<path d="M11.9883 13.5469C11.8652 13.7227 11.8711 13.8633 12.0117 14.0039C12.1289 14.1211 12.2051 14.1211 16.377 14.1211C20.5488 14.1211 20.625 14.1211 20.7422 14.0039C20.8828 13.8633 20.8887 13.7227 20.7656 13.5469L20.6777 13.418H16.377H12.0762L11.9883 13.5469Z" fill="#ED2939"/>
<path d="M12.0176 15.9727C11.8711 16.1602 11.8652 16.2246 11.9883 16.3945L12.0762 16.5234H15.6973C18.8496 16.5234 19.3301 16.5117 19.3945 16.4355C19.5 16.3066 19.4824 16.0723 19.3652 15.9375C19.2598 15.8262 19.166 15.8203 15.6973 15.8203H12.1348L12.0176 15.9727Z" fill="#ED2939"/>
<path d="M7.32421 18.6504C7.21288 18.7031 7.17187 18.7793 7.16015 18.9375C7.12499 19.3594 6.77929 19.3359 12.6738 19.3359H17.9355L18.0762 19.1895C18.2519 19.0195 18.2578 18.9258 18.1113 18.7442L18 18.6035L12.7324 18.5918C8.57812 18.5801 7.4414 18.5918 7.32421 18.6504Z" fill="#ED2939"/>
<path d="M12.75 22.7109C12.6211 22.834 12.6328 23.1035 12.7617 23.2207C12.8555 23.3086 13.043 23.3203 14.1855 23.3203C14.9063 23.3203 15.5273 23.2969 15.5625 23.2734C15.7031 23.1797 15.7676 22.9746 15.6973 22.834C15.6563 22.7637 15.5977 22.6875 15.5625 22.6641C15.5273 22.6406 14.9004 22.6172 14.168 22.6172C13.0371 22.6172 12.8262 22.6289 12.75 22.7109Z" fill="#ED2939"/>
</g>
<defs>
<clipPath id="clip0_319_646">
<rect width="30" height="30" fill="white"/>
</clipPath>
</defs>
</svg>
