<svg width="30" height="30" viewBox="0 0 30 30" fill="none" xmlns="http://www.w3.org/2000/svg">
<g clip-path="url(#clip0_319_647)">
<g clip-path="url(#clip1_319_647)">
<path d="M2.73047 1.00195C2.36719 1.08984 1.83398 1.40039 1.57617 1.68164C1.44727 1.82227 1.25391 2.11523 1.1543 2.33203L0.966797 2.72461V13.5996V24.4688L1.18359 24.9141C1.59375 25.7344 2.2793 26.1797 3.2168 26.2383L3.73242 26.2676L3.76172 26.7891C3.79102 27.2344 3.82617 27.375 4.00781 27.7383C4.25977 28.2539 4.60547 28.5938 5.14453 28.8457L5.53711 29.0332H16.4121H27.2812L27.7266 28.8164C28.2598 28.5527 28.5879 28.2129 28.8457 27.668L29.0332 27.2754V16.4062V5.53711L28.8457 5.14453C28.5938 4.60547 28.2539 4.25977 27.7383 4.00781C27.375 3.82617 27.2344 3.79102 26.7891 3.76172L26.2676 3.73242L26.2383 3.2168C26.1797 2.2793 25.7344 1.59375 24.9141 1.18359L24.4688 0.966797L13.7168 0.955078C7.35352 0.955078 2.86523 0.972656 2.73047 1.00195ZM24.3398 1.94531C24.6621 2.03906 25.1484 2.52539 25.2422 2.84766C25.2832 2.98828 25.3125 3.43359 25.3125 3.89062V4.6875H13.5938H1.875V3.89062C1.875 3.43359 1.9043 2.98828 1.94531 2.84766C2.0332 2.54883 2.52539 2.04492 2.8125 1.95117C3.12305 1.85156 24.0117 1.85156 24.3398 1.94531ZM27.1523 4.75781C27.4746 4.85156 27.9609 5.33789 28.0547 5.66016C28.0957 5.80078 28.125 6.24609 28.125 6.70312V7.5H27.1875H26.25V6.09375V4.6875H26.5781C26.7598 4.6875 27.0176 4.7168 27.1523 4.75781ZM25.3125 7.95117V10.2832L21.2461 14.3555L17.1738 18.4277L16.3242 20.6543C15.8555 21.8789 15.4688 22.9395 15.4688 23.0156C15.4688 23.1914 15.7148 23.4375 15.8906 23.4375C15.9668 23.4375 17.0273 23.0508 18.252 22.582L20.4785 21.7324L22.8984 19.3184L25.3125 16.9043V20.502C25.3125 23.1562 25.2949 24.1582 25.2422 24.3398C25.1484 24.6621 24.6621 25.1484 24.3398 25.2422C23.9883 25.3477 3.19922 25.3477 2.84766 25.2422C2.52539 25.1484 2.03906 24.6621 1.94531 24.3398C1.89258 24.1523 1.875 21.9434 1.875 14.8594V5.625H13.5938H25.3125V7.95117ZM28.125 10.1777V11.9238L27.1875 10.9863L26.25 10.0488V9.24609V8.4375H27.1875H28.125V10.1777ZM26.8945 12.041L27.8613 13.0078L27.1992 13.6641L26.543 14.3262L25.5762 13.3594C25.043 12.8262 24.6094 12.3691 24.6094 12.3398C24.6094 12.2637 25.793 11.0742 25.8691 11.0742C25.9043 11.0742 26.3613 11.5078 26.8945 12.041ZM24.2461 13.377L24.5508 13.6816L21.7383 16.4941L18.9258 19.3066L18.6035 18.9844L18.2812 18.6621L21.0762 15.8672C22.6172 14.3262 23.8887 13.0664 23.9062 13.0664C23.9238 13.0664 24.0762 13.207 24.2461 13.377ZM28.0547 27.1289C27.9609 27.4688 27.4922 27.9551 27.1523 28.0547C26.8008 28.1602 6.01172 28.1602 5.66016 28.0547C5.33789 27.9609 4.85156 27.4746 4.75781 27.1523C4.7168 27.0176 4.6875 26.7598 4.6875 26.5781V26.25L14.5781 26.2383L24.4688 26.2207L24.9141 26.0039C25.4473 25.7402 25.7754 25.4004 26.0332 24.8555L26.2207 24.4629L26.2383 20.2148L26.25 15.9668L27.1758 15.041L28.0957 14.1211L28.1133 20.4902C28.125 25.3828 28.1133 26.9238 28.0547 27.1289ZM23.0566 17.8125L20.2441 20.625L19.9219 20.3027L19.5996 19.9805L22.4121 17.168L25.2246 14.3555L25.5469 14.6777L25.8691 15L23.0566 17.8125ZM19.377 21.1289C19.3711 21.1348 19.1543 21.2227 18.9023 21.3281L18.4336 21.5098L17.918 20.9941L17.3965 20.4727L17.584 19.9863L17.7773 19.5059L18.5801 20.3086C19.0254 20.7539 19.3828 21.123 19.377 21.1289ZM17.2852 21.6504C17.3906 21.7617 17.4727 21.8613 17.4551 21.873C17.4434 21.8906 17.2793 21.9551 17.0977 22.0195L16.7637 22.1426L16.8926 21.7969C16.957 21.6035 17.0332 21.4453 17.0508 21.4453C17.0684 21.4453 17.1738 21.5391 17.2852 21.6504Z" fill="#ED2939"/>
<path d="M3.75 3.28125V3.75H4.21875H4.6875V3.28125V2.8125H4.21875H3.75V3.28125Z" fill="#ED2939"/>
<path d="M5.625 3.28125V3.75H6.09375H6.5625V3.28125V2.8125H6.09375H5.625V3.28125Z" fill="#ED2939"/>
<path d="M7.5 3.28125V3.75H7.96875H8.4375V3.28125V2.8125H7.96875H7.5V3.28125Z" fill="#ED2939"/>
<path d="M3.89648 7.64648L3.75 7.78711V10.3125V12.8379L3.89648 12.9785L4.03711 13.125H7.96875H11.9004L12.041 12.9785L12.1875 12.8379V10.3125V7.78711L12.041 7.64648L11.9004 7.5H7.96875H4.03711L3.89648 7.64648ZM11.25 10.3125V12.1875H7.96875H4.6875V10.3125V8.4375H7.96875H11.25V10.3125Z" fill="#ED2939"/>
<path d="M14.0625 8.4375V8.90625H14.5312H15V8.4375V7.96875H14.5312H14.0625V8.4375Z" fill="#ED2939"/>
<path d="M15.9375 8.4375V8.90625H19.6875H23.4375V8.4375V7.96875H19.6875H15.9375V8.4375Z" fill="#ED2939"/>
<path d="M14.0625 10.3125V10.7812H18.2812H22.5V10.3125V9.84375H18.2812H14.0625V10.3125Z" fill="#ED2939"/>
<path d="M14.0625 12.1875V12.6562H17.3438H20.625V12.1875V11.7188H17.3438H14.0625V12.1875Z" fill="#ED2939"/>
<path d="M3.75 15.4688V15.9375H4.21875H4.6875V15.4688V15H4.21875H3.75V15.4688Z" fill="#ED2939"/>
<path d="M5.625 15.4688V15.9375H11.7188H17.8125V15.4688V15H11.7188H5.625V15.4688Z" fill="#ED2939"/>
<path d="M3.75 17.3438V17.8125H9.84375H15.9375V17.3438V16.875H9.84375H3.75V17.3438Z" fill="#ED2939"/>
<path d="M3.75 19.2188V19.6875H8.90625H14.0625V19.2188V18.75H8.90625H3.75V19.2188Z" fill="#ED2939"/>
<path d="M3.75 21.0938V21.5625H8.90625H14.0625V21.0938V20.625H8.90625H3.75V21.0938Z" fill="#ED2939"/>
<path d="M3.75 22.9688V23.4375H8.90625H14.0625V22.9688V22.5H8.90625H3.75V22.9688Z" fill="#ED2939"/>
</g>
</g>
<defs>
<clipPath id="clip0_319_647">
<rect width="30" height="30" fill="white"/>
</clipPath>
<clipPath id="clip1_319_647">
<rect width="30" height="30" fill="white"/>
</clipPath>
</defs>
</svg>
