<svg width="30" height="30" viewBox="0 0 30 30" fill="none" xmlns="http://www.w3.org/2000/svg">
<g clip-path="url(#clip0_319_648)">
<g clip-path="url(#clip1_319_648)">
<path d="M19.3066 0.0820289C19.0898 0.181638 18.8965 0.386716 18.8145 0.603513C18.7676 0.714841 18.75 2.16797 18.75 5.06836V9.375L14.3613 9.38672C10.0312 9.4043 9.9668 9.4043 9.80859 9.52734C9.7207 9.5918 9.5918 9.7207 9.52734 9.80859C9.4043 9.9668 9.4043 10.0312 9.38672 14.3613L9.375 18.75L4.98633 18.7617C0.65625 18.7793 0.591797 18.7793 0.433594 18.9023C0.345703 18.9668 0.216797 19.0957 0.152344 19.1836C0.0292969 19.3418 0.0292969 19.3828 0.0292969 24.375C0.0292969 29.3672 0.0292969 29.4082 0.152344 29.5664C0.216797 29.6543 0.345703 29.7832 0.433594 29.8477L0.591797 29.9707H15H29.4082L29.5664 29.8477C29.6543 29.7832 29.7832 29.6543 29.8477 29.5664L29.9707 29.4082V15V0.591795L29.8477 0.433591C29.7832 0.345701 29.6543 0.216795 29.5664 0.152341C29.4082 0.0292945 29.3555 0.0292945 24.4453 0.0175757C20.3965 0.00585699 19.4473 0.0175757 19.3066 0.0820289ZM28.125 15V28.125H24.375H20.625V15V1.875H24.375H28.125V15ZM18.75 19.6875V28.125H15H11.25V19.6875V11.25H15H18.75V19.6875ZM9.375 24.375V28.125H5.625H1.875V24.375V20.625H5.625H9.375V24.375Z" fill="#ED2939"/>
</g>
</g>
<defs>
<clipPath id="clip0_319_648">
<rect width="30" height="30" fill="white"/>
</clipPath>
<clipPath id="clip1_319_648">
<rect width="30" height="30" fill="white"/>
</clipPath>
</defs>
</svg>
