<svg width="30" height="30" viewBox="0 0 30 30" fill="none" xmlns="http://www.w3.org/2000/svg">
<g clip-path="url(#clip0_319_649)">
<g clip-path="url(#clip1_319_649)">
<path d="M8.98828 2.09179C8.91797 2.1035 8.8125 2.16796 8.75391 2.23827C8.64844 2.3496 8.64258 2.5371 8.61328 5.29686L8.58398 8.23241L4.40625 8.26171L0.222656 8.291L0.111328 8.43163C0 8.56639 0 8.80077 0 18.0586C0 24.7441 0.0175781 27.5801 0.0644531 27.668C0.222656 27.9668 -0.550781 27.9492 15 27.9492C30.5508 27.9492 29.7773 27.9668 29.9355 27.668C29.9824 27.5801 30 24.7441 30 18.0586C30 8.80077 30 8.56639 29.8887 8.43163L29.7773 8.291L25.5938 8.26171L21.416 8.23241L21.3867 5.291L21.3574 2.3496L21.2227 2.21483L21.0879 2.08007L15.0996 2.07421C11.8066 2.06835 9.05273 2.07421 8.98828 2.09179ZM20.3789 5.666L20.3613 8.23241H15H9.63867L9.62109 5.666L9.60938 3.10546H15H20.3906L20.3789 5.666ZM29.0039 18.0762V26.8945H28.3008H27.5977L27.5859 19.0078L27.5684 11.1211L27.4043 10.9805L27.2402 10.8398H15H2.75977L2.5957 10.9805L2.43164 11.1211L2.41406 19.0078L2.40234 26.8945H1.69922H0.996094V18.0762V9.2578H15H29.0039V18.0762ZM26.543 12.8613V13.8867H15H3.45703V12.8613V11.8359H15H26.543V12.8613ZM26.543 20.8887V26.8945H15H3.45703V20.8887V14.8828H15H26.543V20.8887Z" fill="#ED2939"/>
<path d="M4.42383 12.5098C4.21875 12.709 4.23047 12.9668 4.44727 13.1895L4.61719 13.3594H5.47852H6.33984L6.50977 13.1895C6.60352 13.0957 6.67969 12.9609 6.67969 12.8906C6.67969 12.7207 6.52734 12.4453 6.41602 12.3984C6.36328 12.3809 5.92383 12.3633 5.44336 12.3633C4.58789 12.3633 4.55859 12.3691 4.42383 12.5098Z" fill="#ED2939"/>
<path d="M7.58789 12.5098C7.38281 12.709 7.39453 12.9668 7.61133 13.1895L7.78125 13.3594H8.64258H9.50391L9.67383 13.1895C9.76758 13.0957 9.84375 12.9609 9.84375 12.8906C9.84375 12.7207 9.69141 12.4453 9.58008 12.3984C9.52734 12.3809 9.08789 12.3633 8.60742 12.3633C7.75195 12.3633 7.72266 12.3691 7.58789 12.5098Z" fill="#ED2939"/>
<path d="M4.74609 16.0723C4.41211 16.1895 4.39453 16.2832 4.39453 17.8301V19.2305L4.56445 19.4004L4.73438 19.5703H9.16992H13.5996L13.7402 19.4238L13.8867 19.2832V17.8184C13.8867 16.3535 13.8867 16.3535 13.7461 16.1895L13.6055 16.0254L9.27539 16.0137C6.02344 16.002 4.89844 16.0195 4.74609 16.0723ZM12.8906 17.8125V18.5742L9.1582 18.5625L5.41992 18.5449L5.40234 17.7949L5.38477 17.0508H9.14062H12.8906V17.8125Z" fill="#ED2939"/>
<path d="M17.6426 16.3184C17.0215 16.8516 16.6406 17.4082 16.3711 18.1934C16.2246 18.6152 16.207 18.7383 16.207 19.4531C16.207 20.168 16.2246 20.291 16.3711 20.7129C16.6641 21.5566 17.1152 22.207 17.748 22.6758L18.0996 22.9395L18.1055 24.2051V25.4707L18.2578 25.6113L18.4102 25.752H20.2734H22.1367L22.2891 25.6113L22.4414 25.4707L22.4473 24.2051V22.9395L22.7988 22.6758C23.4551 22.1836 24 21.3574 24.2344 20.5078C24.3809 19.9922 24.375 18.9258 24.2344 18.3984C24.0469 17.7129 23.7012 17.1328 23.1387 16.5645C22.6641 16.084 22.6172 16.0547 22.3887 16.0547C21.9434 16.0547 21.9141 16.1191 21.627 17.7832C21.4863 18.5859 21.3574 19.2832 21.3398 19.3242C21.3223 19.3828 21.0703 19.3945 20.2559 19.3828L19.1953 19.3652L18.9199 17.8184C18.6152 16.0957 18.5977 16.0547 18.1699 16.0547C17.9941 16.0547 17.8887 16.1074 17.6426 16.3184ZM18.0469 18.7207C18.2754 20.0508 18.3164 20.1914 18.4746 20.3027C18.6621 20.4316 21.7793 20.4316 22.0312 20.3027C22.2363 20.1973 22.2539 20.1504 22.5 18.6914C22.6055 18.0938 22.6934 17.6016 22.7051 17.5898C22.7461 17.543 23.0918 18.1816 23.2031 18.5156C23.3906 19.0664 23.3848 19.8633 23.1914 20.4258C22.9395 21.1523 22.5 21.6973 21.8496 22.0957C21.6914 22.1953 21.5332 22.3242 21.5039 22.3828C21.4688 22.4473 21.4453 22.9863 21.4453 23.6074V24.7266H20.2734H19.1016V23.6191C19.1016 23.0098 19.084 22.4648 19.0664 22.4121C19.043 22.3594 18.8906 22.2305 18.7148 22.1191C18.0176 21.6738 17.5605 21.0996 17.3379 20.3965C17.168 19.8574 17.168 19.0371 17.3379 18.5156C17.4609 18.1289 17.8184 17.502 17.8477 17.6074C17.8594 17.6367 17.9473 18.1406 18.0469 18.7207Z" fill="#ED2939"/>
<path d="M4.56445 20.6836L4.38867 20.8535L4.40625 23.168L4.42383 25.4824L4.55859 25.6172L4.69336 25.752H9.14648H13.6055L13.7461 25.5879L13.8867 25.4238V23.1094V20.7949L13.7402 20.6543L13.5996 20.5078H9.16992H4.73438L4.56445 20.6836ZM12.8906 23.1152V24.7266H9.14062H5.39062V23.1562C5.39062 22.2891 5.4082 21.5625 5.43164 21.5449C5.44922 21.5215 7.13672 21.5039 9.18164 21.5039H12.8906V23.1152Z" fill="#ED2939"/>
</g>
</g>
<defs>
<clipPath id="clip0_319_649">
<rect width="30" height="30" fill="white"/>
</clipPath>
<clipPath id="clip1_319_649">
<rect width="30" height="30" fill="white"/>
</clipPath>
</defs>
</svg>
