<svg width="30" height="30" viewBox="0 0 30 30" fill="none" xmlns="http://www.w3.org/2000/svg">
<g clip-path="url(#clip0_319_644)">
<path d="M11.668 5.05859C11.4375 5.14453 11.2266 5.33203 11.1172 5.55469L11.0156 5.75781V7.37109V8.98438H10.6836C10.1797 8.98438 9.94922 9.12109 10.0117 9.38281C10.0703 9.60156 10.1211 9.62891 10.5742 9.64844L10.9961 9.66797L11.0078 12L11.0156 14.3359H9.66797H8.32031V13.9336C8.32031 13.5625 8.3125 13.5234 8.23047 13.4492C8.10156 13.332 8.01953 13.3164 7.875 13.375C7.70703 13.4453 7.65625 13.5898 7.65625 14.0078V14.3359H6.73047C5.83594 14.3359 5.79297 14.3398 5.60547 14.4297C5.37891 14.5352 5.21875 14.6836 5.10156 14.9023L5.01953 15.0586V19.668V24.2773L5.10547 24.4336C5.20312 24.6172 5.39453 24.8047 5.58594 24.9062C5.71875 24.9766 5.91797 24.9805 10.6641 24.9805H15.6055L15.7656 24.8945C16.1289 24.6992 16.2969 24.4219 16.3203 23.9727L16.3359 23.6719H16.6797C17.0937 23.6719 17.2031 23.6367 17.2852 23.4805C17.3594 23.332 17.3281 23.1875 17.1992 23.0859C17.1133 23.0195 17.0391 23.0078 16.7148 23.0078H16.3281V21.6797V20.3516H18.6719H21.0156V20.7422C21.0156 21.1094 21.0234 21.1445 21.1133 21.2305C21.2344 21.3555 21.4062 21.3555 21.5508 21.2344C21.6523 21.1484 21.6562 21.1211 21.6719 20.75L21.6875 20.3555L22.9453 20.3438C24.1719 20.332 24.2031 20.3281 24.4062 20.2383C24.5195 20.1875 24.6719 20.0742 24.7461 19.9883C25.0195 19.668 25.0039 20.2109 24.9922 12.5977C24.9805 5.97656 24.9766 5.71875 24.9062 5.58594C24.8047 5.39453 24.6172 5.20312 24.4336 5.10547L24.2773 5.01953L18.0469 5.01172C12.7734 5.00781 11.793 5.01172 11.668 5.05859ZM24.2227 5.77734L24.3359 5.89062V11.2539C24.3359 14.2031 24.3281 16.6055 24.3203 16.5977C24.3125 16.5898 23.8359 15.6719 23.2617 14.5625C22.6914 13.4492 22.1719 12.4766 22.1133 12.3945C21.7812 11.9336 21.0469 11.8867 20.6367 12.2969C20.5273 12.4062 20.3281 12.7695 19.5312 14.3086L19.1719 15.0078L19.0625 14.8164C18.8047 14.375 18.4453 14.2305 18.0547 14.418C17.832 14.5273 17.8164 14.5586 17.0117 16.1172L16.3477 17.4023L16.3281 16.9648C16.3125 16.5781 16.2969 16.5156 16.2227 16.4375C16.1055 16.3203 15.8867 16.3203 15.7695 16.4375L15.6836 16.5273L15.6641 19.2227L15.6445 21.918L15.082 20.832C14.7734 20.2344 14.4805 19.6914 14.4297 19.625C14.3125 19.4688 14.043 19.3359 13.8437 19.3359C13.6445 19.3398 13.4023 19.4492 13.2773 19.5977C13.2227 19.6641 12.9414 20.1719 12.6523 20.7344C12.3672 21.293 12.1172 21.7422 12.1055 21.7344C12.0898 21.7266 12.0078 21.5938 11.9141 21.4453C11.8203 21.2852 11.6992 21.1328 11.6289 21.0898C11.4648 20.9922 11.1875 20.9922 11.0352 21.0938C10.9609 21.1445 10.7305 21.4844 10.3672 22.0781L9.81641 22.9883L7.74219 23L5.66406 23.0078V19.1172V15.2266L5.77734 15.1133L5.89062 15H10H14.1094L14.2227 14.8867C14.3711 14.7383 14.3711 14.5977 14.2227 14.4492L14.1094 14.3359H12.8945H11.6797V10.1055C11.6836 5.65234 11.6758 5.8125 11.8555 5.71094C11.9141 5.67969 13.5156 5.66797 18.0195 5.66406H24.1094L24.2227 5.77734ZM21.4766 12.7109C21.5625 12.7578 21.8281 13.2383 22.8437 15.1992C23.5352 16.5391 24.0937 17.6367 24.0859 17.6445C24.082 17.6523 22.8359 17.6523 21.3203 17.6484L18.5625 17.6367L19.7969 15.25C20.4805 13.9375 21.0625 12.832 21.0937 12.793C21.1445 12.7305 21.2656 12.6641 21.3398 12.6602C21.3555 12.6562 21.418 12.6797 21.4766 12.7109ZM18.6172 15.3945L18.793 15.7461L18.2969 16.6992L17.8047 17.6562H17.3945C17.0195 17.6562 16.9844 17.6484 17.0078 17.5859C17.0508 17.4766 18.2852 15.1016 18.3281 15.0508C18.3906 14.9727 18.4258 15.0195 18.6172 15.3945ZM24.3359 18.8477C24.3359 19.3984 24.2969 19.5703 24.1602 19.625C24.125 19.6367 22.3477 19.6484 20.2109 19.6484H16.3281V18.9844V18.3203H20.332H24.3359V18.8477ZM14.668 21.4844C15.0859 22.2891 15.4297 22.9609 15.4297 22.9766C15.4297 22.9961 14.7187 23.0078 13.8477 23.0078C12.918 23.0078 12.2656 22.9922 12.2656 22.9727C12.2656 22.9453 13.6875 20.168 13.7734 20.0312C13.7852 20.0117 13.8203 20 13.8555 20.0078C13.8867 20.0156 14.2539 20.6797 14.668 21.4844ZM11.5508 22.1328L11.7578 22.4648L11.6211 22.7383L11.4844 23.0078H11.0352H10.5898L10.9492 22.4023C11.1484 22.0703 11.3164 21.7969 11.3281 21.7969C11.3398 21.7969 11.4414 21.9492 11.5508 22.1328ZM15.6641 23.8906C15.6641 24.0781 15.6484 24.1211 15.5508 24.2227L15.4375 24.3359H10.6641H5.89062L5.77734 24.2227C5.67969 24.1211 5.66406 24.0781 5.66406 23.8906V23.6719H10.6641H15.6641V23.8906Z" fill="#ED2939"/>
<path d="M13.9258 6.35546C13.3516 6.43749 12.8125 6.81249 12.5586 7.30468C12.1797 8.04687 12.3086 8.8789 12.8945 9.46093C13.4453 10.0156 14.2617 10.1445 14.9805 9.78905C15.9297 9.3203 16.2734 8.14062 15.7266 7.21093C15.4883 6.80077 14.9531 6.44921 14.4531 6.37109C14.1953 6.32812 14.1367 6.32812 13.9258 6.35546ZM14.6445 7.11327C14.8633 7.20702 15.0508 7.3828 15.1875 7.61718C15.2813 7.77343 15.293 7.83202 15.293 8.16405C15.293 8.46874 15.2773 8.56249 15.207 8.6914C14.9102 9.24609 14.2148 9.47655 13.6641 9.20702C13.2891 9.02343 13.0508 8.67577 13.0195 8.26171C12.9961 7.96874 13.0508 7.7578 13.2148 7.51562C13.5273 7.04687 14.1211 6.8789 14.6445 7.11327Z" fill="#ED2939"/>
<path d="M19.0742 7.40234C18.4805 7.58594 18.0547 8.12109 18.0156 8.73828C18 8.96875 17.9844 9.02344 17.9336 9.02344C17.8125 9.02734 17.543 9.17578 17.3711 9.33203C17.1289 9.55469 17.0156 9.82812 17.0156 10.1797C17.0156 10.6719 17.2969 11.0742 17.7617 11.25C17.9609 11.3242 18.0664 11.3281 19.8398 11.3281C21.918 11.3281 21.9414 11.3242 22.3359 11.0664C22.8086 10.75 23.0742 10.1406 22.9727 9.59766C22.8555 8.95703 22.3828 8.48438 21.7383 8.35938C21.5117 8.31641 21.2109 8.33984 21.0117 8.41797C20.9648 8.43359 20.9336 8.39844 20.8828 8.27344C20.6172 7.58594 19.7734 7.17969 19.0742 7.40234ZM19.9258 8.12109C20.1719 8.26562 20.2852 8.47266 20.3125 8.83594C20.332 9.11719 20.3438 9.16016 20.4414 9.24219C20.5938 9.37109 20.7344 9.35938 20.957 9.19922C21.3711 8.90625 21.8398 8.95703 22.1406 9.32031C22.4766 9.72656 22.3359 10.3477 21.8633 10.5703L21.6602 10.6641H19.8477C18.1016 10.6641 18.0313 10.6602 17.9102 10.5859C17.6211 10.4062 17.5898 10.0508 17.8398 9.81641C17.9609 9.70312 18 9.6875 18.1992 9.6875C18.5078 9.6875 18.6523 9.62891 18.7266 9.47656C18.7773 9.36719 18.7773 9.32812 18.7227 9.10938C18.6445 8.79297 18.6797 8.56641 18.8398 8.34766C19.0234 8.10547 19.2578 7.99609 19.5508 8.01953C19.6953 8.03125 19.8398 8.07031 19.9258 8.12109Z" fill="#ED2939"/>
<path d="M16.1836 13.957C16.1406 13.9844 15.5547 14.6836 14.8906 15.5156C13.8242 16.8516 13.6758 17.0195 13.6562 16.9336C13.5938 16.6836 13.2852 16.5977 13.1055 16.7773C13.0117 16.8711 13.0078 16.8828 13.0078 17.5C13.0078 18.1172 13.0117 18.1289 13.1055 18.2227C13.1992 18.3164 13.2148 18.3203 13.8203 18.3203C14.3906 18.3203 14.4531 18.3125 14.5469 18.2383C14.625 18.1758 14.6484 18.125 14.6484 18.0156C14.6445 17.7773 14.4922 17.6562 14.1953 17.6562C14.1211 17.6562 14.0625 17.6484 14.0625 17.6367C14.0625 17.625 14.6328 16.9062 15.332 16.0352C16.0312 15.168 16.6211 14.4102 16.6445 14.3516C16.6953 14.207 16.625 14.0391 16.4805 13.9648C16.3477 13.8945 16.2969 13.8945 16.1836 13.957Z" fill="#ED2939"/>
<path d="M7.37109 15.7031C6.64453 15.8867 6.20313 16.6016 6.38281 17.3086C6.64063 18.3242 7.86328 18.668 8.59766 17.9336C8.89453 17.6328 9 17.3633 8.97656 16.9336C8.95703 16.5664 8.83984 16.3008 8.58984 16.0508C8.29297 15.7539 7.76563 15.6055 7.37109 15.7031ZM7.95703 16.4102C8.20313 16.5313 8.33594 16.7695 8.3125 17.0547C8.28125 17.4063 8.07031 17.6172 7.71875 17.6484C7.35938 17.6758 7.06641 17.4453 7.01172 17.0859C6.96484 16.8086 7.125 16.5274 7.40234 16.4024C7.60547 16.3086 7.75 16.3086 7.95703 16.4102Z" fill="#ED2939"/>
<path d="M8.48047 9.02735C7.94531 9.13282 7.61328 9.63282 7.66406 10.2695C7.67969 10.4414 7.70313 10.5 7.78906 10.5742C7.92578 10.6914 8.08594 10.6875 8.21875 10.5664C8.30469 10.4844 8.32031 10.4414 8.32031 10.2422C8.32031 9.80079 8.41406 9.69141 8.80469 9.66016C9.17578 9.63282 9.21485 9.61719 9.28516 9.47266C9.33985 9.35938 9.33985 9.32423 9.29688 9.21485C9.20703 9.00782 8.92578 8.94141 8.48047 9.02735Z" fill="#ED2939"/>
<path d="M7.85156 11.3789C7.6875 11.4609 7.65234 11.582 7.66406 12.0391C7.67578 12.418 7.68359 12.4648 7.76953 12.5547C7.89844 12.6914 8.09375 12.6914 8.22266 12.5586C8.31641 12.4687 8.32031 12.4414 8.32031 12.0039C8.31641 11.5234 8.30078 11.4609 8.13672 11.375C8.03125 11.3164 7.97266 11.3164 7.85156 11.3789Z" fill="#ED2939"/>
<path d="M21.2148 22.0352C21.0664 22.0938 21.0195 22.1914 21.0156 22.4258C21.0156 22.875 20.8906 23.0078 20.457 23.0078C20.2617 23.0078 20.1914 23.0234 20.125 23.0859C20.0078 23.1953 19.9766 23.3516 20.043 23.4727C20.125 23.6172 20.2578 23.6719 20.5313 23.6719C21.1953 23.6719 21.6055 23.3086 21.6641 22.6641C21.6953 22.3281 21.6367 22.1289 21.4844 22.0508C21.3555 21.9844 21.3438 21.9844 21.2148 22.0352Z" fill="#ED2939"/>
<path d="M18.1055 23.1055C17.9727 23.2344 17.9727 23.4297 18.1094 23.5586C18.1992 23.6445 18.2461 23.6524 18.625 23.6641C19.0898 23.6758 19.207 23.6406 19.2891 23.4609C19.3555 23.332 19.3242 23.1914 19.2109 23.0859C19.1367 23.0156 19.0742 23.0078 18.6641 23.0078C18.2227 23.0078 18.1953 23.0117 18.1055 23.1055Z" fill="#ED2939"/>
</g>
<defs>
<clipPath id="clip0_319_644">
<rect width="20" height="20" fill="white" transform="translate(5 5)"/>
</clipPath>
</defs>
</svg>
