<svg width="30" height="30" viewBox="0 0 30 30" fill="none" xmlns="http://www.w3.org/2000/svg">
<g clip-path="url(#clip0_319_645)">
<path d="M14.8242 5.19922C14.5312 5.30078 14.2148 5.51172 14.0469 5.71875C13.9727 5.80469 13.6992 6.25391 13.4375 6.70703L12.957 7.53906H9.75C6.25 7.53906 6.28516 7.53516 5.89844 7.76172C5.46875 8.01562 5.13281 8.48438 5.03906 8.96484C5.00781 9.13672 5 10.7734 5.00781 14.9609L5.01953 20.7227L5.10547 20.9336C5.3125 21.4336 5.67578 21.8047 6.16406 22L6.38672 22.0898L9.32031 22.1016L12.2539 22.1133L12.2773 22.4062C12.3008 22.7188 12.2539 23.4492 12.1875 23.8477C12.168 23.9766 12.1484 24.0859 12.1484 24.0898C12.1484 24.0977 11.6484 24.1016 11.0352 24.1016C9.83984 24.1016 9.70312 24.1211 9.60937 24.2969C9.52734 24.4531 9.55078 24.6445 9.67187 24.7695L9.78125 24.8828H15H20.2188L20.3281 24.7695C20.4492 24.6445 20.4727 24.4531 20.3906 24.2969C20.2969 24.1211 20.1602 24.1016 18.9531 24.1016H17.8242L17.7773 23.8164C17.6992 23.332 17.6563 22.6953 17.6836 22.3984L17.707 22.1133L20.6602 22.1016L23.6133 22.0898L23.8281 22.0039C24.3203 21.8008 24.6953 21.4258 24.8906 20.9453L24.9805 20.7227L24.9922 14.75C25.0039 8.11328 25.0195 8.54688 24.7422 8.13672C24.582 7.90234 24.2734 7.67578 24.0039 7.59766C23.8438 7.54688 23.2773 7.53906 20.4063 7.53906H16.9922L17.0313 7.44141C17.2383 6.89844 17.0898 6.15234 16.6875 5.69922C16.2305 5.1875 15.4609 4.98047 14.8242 5.19922ZM15.7305 5.95703C16.1758 6.14453 16.4141 6.57812 16.3242 7.04297C16.3008 7.18359 16.0586 7.67969 15.9531 7.80859C15.9492 7.81641 15.5625 7.60547 15.1016 7.33984L14.2617 6.85547L14.4023 6.60156C14.5742 6.28516 14.7773 6.06641 14.9805 5.97266C15.1719 5.88281 15.5352 5.875 15.7305 5.95703ZM14.7852 8.05469C15.1953 8.29297 15.5312 8.48828 15.5391 8.49609C15.5508 8.50391 12.3984 13.9805 12.3594 14.0195C12.3516 14.0273 11.9687 13.8203 11.5039 13.5547L10.6641 13.0703L10.7578 12.9141C10.8086 12.8242 11.5039 11.6211 12.3047 10.2344C13.1016 8.84766 13.7812 7.67578 13.8125 7.625C13.8789 7.51953 13.7773 7.47656 14.7852 8.05469ZM12.4102 8.48438C11.4336 10.168 9.82031 12.9805 9.77734 13.0781C9.73437 13.1836 9.72656 13.4805 9.73437 14.6562L9.74609 16.1016L9.875 16.2148L10 16.3281H14.9961H19.9922L20.1094 16.2305C20.2461 16.1172 20.2852 15.9609 20.2188 15.8008C20.1133 15.5508 20.4336 15.5664 15.832 15.5469L11.6406 15.5273L12.2109 15.1914L12.7852 14.8594L14.668 11.5977L16.5469 8.33984L20.1641 8.32812L23.7773 8.32031L23.9062 8.40625C23.9766 8.45703 24.0742 8.54688 24.1172 8.60547L24.1992 8.71484L24.2109 13.6562L24.2188 18.5938H15H5.78125L5.78906 13.8164L5.80078 9.03906L5.89844 8.85156C6.01172 8.63281 6.21094 8.45703 6.42969 8.37891C6.55469 8.33203 7.12891 8.32422 9.54297 8.32031H12.5078L12.4102 8.48438ZM11.1289 14.2383C11.4336 14.4102 11.6797 14.5625 11.6797 14.5742C11.6797 14.6055 10.5937 15.2344 10.543 15.2344C10.5234 15.2344 10.5078 14.9414 10.5078 14.5664C10.5078 14.168 10.5234 13.9062 10.543 13.9141C10.5664 13.918 10.8281 14.0664 11.1289 14.2383ZM24.2109 19.9883C24.1992 20.4961 24.1836 20.6289 24.125 20.7422C24.0234 20.9336 23.8359 21.125 23.6523 21.2227L23.4961 21.3086H15H6.50391L6.34766 21.2227C6.14062 21.1133 5.96094 20.918 5.86328 20.7031C5.79297 20.5508 5.78125 20.4453 5.78125 19.9492V19.375H15.0039H24.2266L24.2109 19.9883ZM16.9023 22.6836C16.9062 23.0039 16.9336 23.4453 16.9688 23.668C17.0039 23.8945 17.0313 24.082 17.0313 24.0898C17.0313 24.0977 16.1055 24.1016 14.9766 24.1016C13.0391 24.1016 12.9258 24.0977 12.9453 24.0312C13 23.8477 13.0547 23.1992 13.0547 22.6836L13.0586 22.1094H14.9766H16.8984L16.9023 22.6836Z" fill="#ED2939"/>
<path d="M15.5664 13.2891C15.4336 13.4062 15.3945 13.6328 15.4883 13.7734C15.625 13.9805 15.6484 13.9844 17.8594 13.9844C19.7266 13.9844 19.9141 13.9766 20.0391 13.9141C20.2734 13.7969 20.3203 13.4922 20.1289 13.3008L20.0273 13.2031H17.8477H15.668L15.5664 13.2891Z" fill="#ED2939"/>
</g>
<defs>
<clipPath id="clip0_319_645">
<rect width="20" height="20" fill="white" transform="translate(5 5)"/>
</clipPath>
</defs>
</svg>
