<svg width="30" height="30" viewBox="0 0 30 30" fill="none" xmlns="http://www.w3.org/2000/svg">
<g clip-path="url(#clip0_319_649)">
<path d="M10.9922 6.39452C10.9453 6.40234 10.875 6.4453 10.8359 6.49218C10.7656 6.5664 10.7617 6.6914 10.7422 8.53124L10.7227 10.4883L7.9375 10.5078L5.14844 10.5273L5.07422 10.6211C5 10.7109 5 10.8672 5 17.0391C5 21.4961 5.01172 23.3867 5.04297 23.4453C5.14844 23.6445 4.63281 23.6328 15 23.6328C25.3672 23.6328 24.8516 23.6445 24.957 23.4453C24.9883 23.3867 25 21.4961 25 17.0391C25 10.8672 25 10.7109 24.9258 10.6211L24.8516 10.5273L22.0625 10.5078L19.2773 10.4883L19.2578 8.52734L19.2383 6.5664L19.1484 6.47655L19.0586 6.38671L15.0664 6.3828C12.8711 6.3789 11.0352 6.3828 10.9922 6.39452ZM18.5859 8.77734L18.5742 10.4883H15H11.4258L11.4141 8.77734L11.4062 7.0703H15H18.5938L18.5859 8.77734ZM24.3359 17.0508V22.9297H23.8672H23.3984L23.3906 17.6719L23.3789 12.4141L23.2695 12.3203L23.1602 12.2266H15H6.83984L6.73047 12.3203L6.62109 12.4141L6.60938 17.6719L6.60156 22.9297H6.13281H5.66406V17.0508V11.1719H15H24.3359V17.0508ZM22.6953 13.5742V14.2578H15H7.30469V13.5742V12.8906H15H22.6953V13.5742ZM22.6953 18.9258V22.9297H15H7.30469V18.9258V14.9219H15H22.6953V18.9258Z" fill="#ED2939"/>
<path d="M7.94922 13.3398C7.8125 13.4727 7.82031 13.6445 7.96484 13.793L8.07812 13.9062H8.65234H9.22656L9.33984 13.793C9.40234 13.7305 9.45312 13.6406 9.45312 13.5938C9.45312 13.4805 9.35156 13.2969 9.27734 13.2656C9.24219 13.2539 8.94922 13.2422 8.62891 13.2422C8.05859 13.2422 8.03906 13.2461 7.94922 13.3398Z" fill="#ED2939"/>
<path d="M10.0586 13.3398C9.92187 13.4727 9.92969 13.6445 10.0742 13.793L10.1875 13.9062H10.7617H11.3359L11.4492 13.793C11.5117 13.7305 11.5625 13.6406 11.5625 13.5938C11.5625 13.4805 11.4609 13.2969 11.3867 13.2656C11.3516 13.2539 11.0586 13.2422 10.7383 13.2422C10.168 13.2422 10.1484 13.2461 10.0586 13.3398Z" fill="#ED2939"/>
<path d="M8.16406 15.7148C7.94141 15.793 7.92969 15.8555 7.92969 16.8867V17.8203L8.04297 17.9336L8.15625 18.0469H11.1133H14.0664L14.1602 17.9492L14.2578 17.8555V16.8789C14.2578 15.9023 14.2578 15.9023 14.1641 15.793L14.0703 15.6836L11.1836 15.6758C9.01562 15.668 8.26562 15.6797 8.16406 15.7148ZM13.5938 16.875V17.3828L11.1055 17.375L8.61328 17.3633L8.60156 16.8633L8.58984 16.3672H11.0938H13.5938V16.875Z" fill="#ED2939"/>
<path d="M16.7617 15.8789C16.3477 16.2344 16.0938 16.6055 15.9141 17.1289C15.8164 17.4102 15.8047 17.4922 15.8047 17.9688C15.8047 18.4453 15.8164 18.5273 15.9141 18.8086C16.1094 19.3711 16.4102 19.8047 16.832 20.1172L17.0664 20.293L17.0703 21.1367V21.9805L17.1719 22.0742L17.2734 22.168H18.5156H19.7578L19.8594 22.0742L19.9609 21.9805L19.9648 21.1367V20.293L20.1992 20.1172C20.6367 19.7891 21 19.2383 21.1562 18.6719C21.2539 18.3281 21.25 17.6172 21.1562 17.2656C21.0312 16.8086 20.8008 16.4219 20.4258 16.043C20.1094 15.7227 20.0781 15.7031 19.9258 15.7031C19.6289 15.7031 19.6094 15.7461 19.418 16.8555C19.3242 17.3906 19.2383 17.8555 19.2266 17.8828C19.2148 17.9219 19.0469 17.9297 18.5039 17.9219L17.7969 17.9102L17.6133 16.8789C17.4102 15.7305 17.3984 15.7031 17.1133 15.7031C16.9961 15.7031 16.9258 15.7383 16.7617 15.8789ZM17.0312 17.4805C17.1836 18.3672 17.2109 18.4609 17.3164 18.5352C17.4414 18.6211 19.5195 18.6211 19.6875 18.5352C19.8242 18.4648 19.8359 18.4336 20 17.4609C20.0703 17.0625 20.1289 16.7344 20.1367 16.7266C20.1641 16.6953 20.3945 17.1211 20.4688 17.3438C20.5938 17.7109 20.5898 18.2422 20.4609 18.6172C20.293 19.1016 20 19.4648 19.5664 19.7305C19.4609 19.7969 19.3555 19.8828 19.3359 19.9219C19.3125 19.9648 19.2969 20.3242 19.2969 20.7383V21.4844H18.5156H17.7344V20.7461C17.7344 20.3398 17.7227 19.9766 17.7109 19.9414C17.6953 19.9062 17.5938 19.8203 17.4766 19.7461C17.0117 19.4492 16.707 19.0664 16.5586 18.5977C16.4453 18.2383 16.4453 17.6914 16.5586 17.3438C16.6406 17.0859 16.8789 16.668 16.8984 16.7383C16.9062 16.7578 16.9648 17.0938 17.0312 17.4805Z" fill="#ED2939"/>
<path d="M8.04297 18.7891L7.92578 18.9023L7.9375 20.4453L7.94922 21.9883L8.03906 22.0781L8.12891 22.168H11.0977H14.0703L14.1641 22.0586L14.2578 21.9492V20.4062V18.8633L14.1602 18.7695L14.0664 18.6719H11.1133H8.15625L8.04297 18.7891ZM13.5938 20.4102V21.4844H11.0938H8.59375V20.4375C8.59375 19.8594 8.60547 19.375 8.62109 19.3633C8.63281 19.3477 9.75781 19.3359 11.1211 19.3359H13.5938V20.4102Z" fill="#ED2939"/>
</g>
<defs>
<clipPath id="clip0_319_649">
<rect width="20" height="20" fill="white" transform="translate(5 5)"/>
</clipPath>
</defs>
</svg>
