<svg width="30" height="30" viewBox="0 0 30 30" fill="none" xmlns="http://www.w3.org/2000/svg">
<g clip-path="url(#clip0_319_648)">
<path d="M17.8711 5.05469C17.7266 5.12109 17.5977 5.25781 17.543 5.40234C17.5117 5.47656 17.5 6.44531 17.5 8.3789V11.25L14.5742 11.2578C11.6875 11.2695 11.6445 11.2695 11.5391 11.3516C11.4805 11.3945 11.3945 11.4805 11.3516 11.5391C11.2695 11.6445 11.2695 11.6875 11.2578 14.5742L11.25 17.5L8.32422 17.5078C5.4375 17.5195 5.39453 17.5195 5.28906 17.6016C5.23047 17.6445 5.14453 17.7305 5.10156 17.7891C5.01953 17.8945 5.01953 17.9219 5.01953 21.25C5.01953 24.5781 5.01953 24.6055 5.10156 24.7109C5.14453 24.7695 5.23047 24.8555 5.28906 24.8984L5.39453 24.9805H15H24.6055L24.7109 24.8984C24.7695 24.8555 24.8555 24.7695 24.8984 24.7109L24.9805 24.6055V15V5.39453L24.8984 5.28906C24.8555 5.23047 24.7695 5.14453 24.7109 5.10156C24.6055 5.01953 24.5703 5.01953 21.2969 5.01172C18.5977 5.0039 17.9648 5.01172 17.8711 5.05469ZM23.75 15V23.75H21.25H18.75V15V6.25H21.25H23.75V15ZM17.5 18.125V23.75H15H12.5V18.125V12.5H15H17.5V18.125ZM11.25 21.25V23.75H8.75H6.25V21.25V18.75H8.75H11.25V21.25Z" fill="#ED2939"/>
</g>
<defs>
<clipPath id="clip0_319_648">
<rect width="20" height="20" fill="white" transform="translate(5 5)"/>
</clipPath>
</defs>
</svg>
