<svg width="30" height="30" viewBox="0 0 30 30" fill="none" xmlns="http://www.w3.org/2000/svg">
<g clip-path="url(#clip0_319_646)">
<path d="M9.42578 6.05859C9.23828 6.15234 9.03906 6.35938 8.96094 6.54688C8.91797 6.64844 8.90625 6.94922 8.90625 7.89062V9.10156H8.05859C7.58984 9.10156 7.13281 9.12109 7.03906 9.14062C6.59375 9.24609 6.17578 9.58203 5.98438 9.98828L5.87891 10.2148V15.2734V20.332L5.98828 20.5664C6.125 20.8633 6.39844 21.1445 6.69922 21.3008L6.93359 21.4258L9.67969 21.4375C11.1875 21.4414 12.4219 21.4609 12.4219 21.4766C12.4219 21.4922 12.2461 21.9609 12.0352 22.5195L11.6484 23.5352L11.0352 23.5547C10.4883 23.5703 10.418 23.582 10.3672 23.6484C10.293 23.7539 10.2969 23.8828 10.3828 23.957C10.4492 24.0195 10.7734 24.0234 14.2305 24.0234H18.0039L18.0625 23.9375C18.1406 23.8281 18.1406 23.7461 18.0703 23.6484C18.0195 23.582 17.9492 23.5703 17.3984 23.5547L16.7852 23.5352L16.418 22.5781C16.2188 22.0508 16.043 21.582 16.0313 21.5352L16.0078 21.4453L18.7344 21.4375L21.4648 21.4258L21.6875 21.3203C22 21.1758 22.2813 20.9023 22.4336 20.5898L22.5586 20.332V17.3477V14.3594L22.4531 14.2969C22.3555 14.2461 22.332 14.2461 22.2383 14.2969L22.1289 14.3594L22.1172 16.7109L22.1094 19.0625H21.1719H20.2344V18.0195C20.2344 17.1836 20.2461 16.9648 20.2891 16.918C20.3203 16.8828 21.1914 15.3438 22.2266 13.4961C24.3438 9.71875 24.2773 9.86719 24.0195 9.59766C23.8203 9.38672 22.8633 8.86719 22.6758 8.86719C22.4688 8.86719 22.2969 8.98828 22.168 9.22656C22.1094 9.33984 22.0547 9.4375 22.0508 9.44531C22.0469 9.44922 21.9414 9.39453 21.8203 9.32031C21.5273 9.14453 21.3125 9.10156 20.7227 9.10156H20.2344V8.80078V8.5L18.9766 7.23828L17.7148 5.97656H13.6523C9.60938 5.97656 9.58984 5.97656 9.42578 6.05859ZM17.3828 7.23047C17.3828 8.16016 17.4063 8.26562 17.6602 8.52344C17.9258 8.78906 18.0898 8.82812 18.9922 8.82812H19.7266V10.3125V11.8008L19.8242 11.8945C19.9453 12.0156 20.0156 12.0156 20.1367 11.8945L20.2344 11.8008V10.6797V9.5625L20.7734 9.57812C21.3359 9.59375 21.5742 9.65625 21.7266 9.82812C21.7891 9.90234 21.7227 10.0312 20.1211 12.8945L18.4453 15.8828L18.3828 16.8008C18.3477 17.3086 18.3203 17.7773 18.3203 17.8438C18.3203 17.9844 18.4375 18.125 18.5508 18.125C18.5898 18.125 18.8711 17.9492 19.1797 17.7344C19.4844 17.5195 19.7422 17.3438 19.75 17.3438C19.7578 17.3438 19.7656 17.7305 19.7656 18.2031V19.0625H14.5703H9.375L9.38281 12.8945L9.39453 6.72656L9.49219 6.62109C9.54688 6.5625 9.625 6.5 9.66797 6.48438C9.71094 6.46484 11.4648 6.44922 13.5664 6.44922L17.3828 6.44531V7.23047ZM18.7891 8.3125C17.8867 8.32812 17.8516 8.29297 17.8516 7.35547V6.77734L18.6133 7.53906L19.375 8.30078L18.7891 8.3125ZM23.3672 9.73047L23.6719 9.89844L23.5117 10.1914C23.4219 10.3555 23.3359 10.5039 23.3203 10.5195C23.2969 10.5469 22.4219 10.0898 22.332 10.0039C22.3164 9.98828 22.3828 9.82812 22.4844 9.65234L22.6641 9.33203L22.8633 9.44531C22.9766 9.50781 23.2031 9.63672 23.3672 9.73047ZM8.88672 14.3164V19.043L7.60547 19.0547L6.32813 19.0625L6.33594 14.6992C6.34766 9.80078 6.32031 10.2383 6.63672 9.91016C6.92188 9.60938 7.06641 9.57422 8.10547 9.58203L8.88672 9.58984V14.3164ZM22.5781 10.7031L23.0781 10.9805L21.6094 13.6055C20.8047 15.0508 20.1211 16.2539 20.0938 16.2852C20.0508 16.332 20.0234 16.3203 19.8984 16.2109C19.7578 16.0898 19.3164 15.8555 19.1406 15.8086C19.0586 15.7891 19.0625 15.7773 19.207 15.5195C20.3164 13.5273 22.0547 10.4297 22.0664 10.4297C22.0742 10.4297 22.3047 10.5547 22.5781 10.7031ZM19.2383 16.3672C19.4219 16.4492 19.7266 16.6641 19.7266 16.7148C19.7266 16.7344 19.6094 16.8359 19.4648 16.9375C19.3164 17.0391 19.1133 17.1836 19.0117 17.2578L18.8203 17.3945L18.8438 17.0273C18.8594 16.8242 18.8789 16.5664 18.8906 16.4531C18.9141 16.2227 18.9141 16.2227 19.2383 16.3672ZM22.1016 19.8594C22.082 20.2539 21.9492 20.5586 21.7188 20.7422C21.4023 20.9922 21.9297 20.9766 14.1406 20.9688L7.05078 20.957L6.86719 20.8516C6.5 20.6328 6.32813 20.3008 6.32813 19.7969V19.5312H14.2227H22.1211L22.1016 19.8594ZM15.8711 22.5039C16.0859 23.0625 16.25 23.5273 16.2422 23.5391C16.2305 23.5469 15.3086 23.5508 14.1953 23.5469L12.1641 23.5352L12.5547 22.5078L12.9453 21.4844H14.2148H15.4883L15.8711 22.5039Z" fill="#ED2939"/>
<path d="M13.2305 7.53125C13.1406 7.62891 13.1484 7.75781 13.2422 7.85156C13.3164 7.92578 13.3711 7.92969 15.0625 7.92969C16.1172 7.92969 16.8281 7.91406 16.875 7.89062C16.9766 7.83594 17.0078 7.66797 16.9336 7.55469L16.875 7.46094H15.082C13.3984 7.46094 13.2891 7.46484 13.2305 7.53125Z" fill="#ED2939"/>
<path d="M9.91016 8.82031C9.82422 8.91406 9.82813 9.07422 9.91407 9.15234C9.98047 9.21484 10.2813 9.21875 13.4102 9.21875C16.7852 9.21875 16.8359 9.21875 16.9141 9.14062C16.957 9.09766 16.9922 9.02734 16.9922 8.98438C16.9922 8.94141 16.957 8.87109 16.9141 8.82812C16.8359 8.75 16.7852 8.75 13.4063 8.75C10.1289 8.75 9.96875 8.75391 9.91016 8.82031Z" fill="#ED2939"/>
<path d="M9.91016 10.3047C9.85156 10.3672 9.84375 10.5156 9.84375 11.5664C9.84375 12.5352 9.85547 12.7734 9.89844 12.8359C9.95313 12.9102 10.0469 12.9102 14.5508 12.9102H19.1484L19.2227 12.8164C19.293 12.7305 19.2969 12.6484 19.2969 11.5664C19.2969 10.582 19.2891 10.3945 19.2344 10.3203L19.1758 10.2344H14.5742C10.168 10.2344 9.96875 10.2383 9.91016 10.3047ZM18.7891 11.5625V12.4219H14.5508H10.3125V11.5625V10.7031H14.5508H18.7891V11.5625Z" fill="#ED2939"/>
<path d="M11.5117 11.375C11.4023 11.4609 11.3867 11.6211 11.4805 11.7148C11.5625 11.7969 11.5742 11.7969 14.5625 11.7969C17.4219 11.7969 17.5703 11.793 17.6289 11.7266C17.7188 11.6289 17.7109 11.5 17.6172 11.4062C17.5391 11.3281 17.4883 11.3281 14.5586 11.3281C12.2344 11.3281 11.5625 11.3398 11.5117 11.375Z" fill="#ED2939"/>
<path d="M9.92969 13.6953C9.84375 13.7539 9.84375 13.7578 9.84375 14.9805C9.84375 16.2031 9.84375 16.207 9.92969 16.2656C10.0039 16.3203 10.1953 16.3281 11.2383 16.3281C12.4102 16.3281 12.4648 16.3242 12.5391 16.25C12.6133 16.1758 12.6172 16.1211 12.6172 14.9805C12.6172 13.8398 12.6133 13.7852 12.5391 13.7109C12.4648 13.6367 12.4102 13.6328 11.2383 13.6328C10.1953 13.6328 10.0039 13.6406 9.92969 13.6953ZM12.1406 14.9883L12.1289 15.8398L11.2227 15.8516L10.3125 15.8594V15V14.1406H11.2305H12.1484L12.1406 14.9883Z" fill="#ED2939"/>
<path d="M12.9922 14.0312C12.9102 14.1484 12.9141 14.2422 13.0078 14.3359C13.0859 14.4141 13.1367 14.4141 15.918 14.4141C18.6992 14.4141 18.75 14.4141 18.8281 14.3359C18.9219 14.2422 18.9258 14.1484 18.8438 14.0312L18.7852 13.9453H15.918H13.0508L12.9922 14.0312Z" fill="#ED2939"/>
<path d="M13.0117 15.6484C12.9141 15.7734 12.9102 15.8164 12.9922 15.9297L13.0508 16.0156H15.4648C17.5664 16.0156 17.8867 16.0078 17.9297 15.957C18 15.8711 17.9883 15.7148 17.9102 15.625C17.8398 15.5508 17.7773 15.5469 15.4648 15.5469H13.0898L13.0117 15.6484Z" fill="#ED2939"/>
<path d="M9.88281 17.4336C9.80859 17.4687 9.78125 17.5195 9.77343 17.625C9.75 17.9062 9.51953 17.8906 13.4492 17.8906H16.957L17.0508 17.793C17.168 17.6797 17.1719 17.6172 17.0742 17.4961L17 17.4023L13.4883 17.3945C10.7187 17.3867 9.96093 17.3945 9.88281 17.4336Z" fill="#ED2939"/>
<path d="M13.5 20.1406C13.4141 20.2227 13.4219 20.4023 13.5078 20.4805C13.5703 20.5391 13.6953 20.5469 14.457 20.5469C14.9375 20.5469 15.3516 20.5312 15.375 20.5156C15.4687 20.4531 15.5117 20.3164 15.4648 20.2227C15.4375 20.1758 15.3984 20.125 15.375 20.1094C15.3516 20.0938 14.9336 20.0781 14.4453 20.0781C13.6914 20.0781 13.5508 20.0859 13.5 20.1406Z" fill="#ED2939"/>
</g>
<defs>
<clipPath id="clip0_319_646">
<rect width="20" height="20" fill="white" transform="translate(5 5)"/>
</clipPath>
</defs>
</svg>
