<svg width="30" height="30" viewBox="0 0 30 30" fill="none" xmlns="http://www.w3.org/2000/svg">
<path d="M6.34766 7.59766L6.25 7.69141V15V22.3086L6.34766 22.4023L6.44141 22.5H12.3438H18.2461L18.3398 22.4023C18.4688 22.2773 18.4688 22.0977 18.3398 21.9727L18.2461 21.875H12.5586H6.875V16.25V10.625H15H23.125V16.4648V22.3086L23.2227 22.4023C23.3477 22.5312 23.5273 22.5312 23.6523 22.4023L23.75 22.3086V15V7.69141L23.6523 7.59766L23.5586 7.5H15H6.44141L6.34766 7.59766ZM11.25 9.0625V10H9.0625H6.875V9.0625V8.125H9.0625H11.25V9.0625ZM23.125 9.0625V10H17.5H11.875V9.0625V8.125H17.5H23.125V9.0625Z" fill="#ED2939"/>
<path d="M7.59766 8.84766C7.40235 9.03906 7.53907 9.375 7.8125 9.375C7.97266 9.375 8.125 9.22266 8.125 9.0625C8.125 8.90234 7.97266 8.75 7.8125 8.75C7.73828 8.75 7.65625 8.78516 7.59766 8.84766Z" fill="#ED2939"/>
<path d="M8.84766 8.84766C8.65235 9.03906 8.78907 9.375 9.0625 9.375C9.22266 9.375 9.375 9.22266 9.375 9.0625C9.375 8.90234 9.22266 8.75 9.0625 8.75C8.98828 8.75 8.90625 8.78516 8.84766 8.84766Z" fill="#ED2939"/>
<path d="M10.0977 8.84766C9.90235 9.03906 10.0391 9.375 10.3125 9.375C10.4727 9.375 10.625 9.22266 10.625 9.0625C10.625 8.90234 10.4727 8.75 10.3125 8.75C10.2383 8.75 10.1563 8.78516 10.0977 8.84766Z" fill="#ED2939"/>
<path d="M12.5977 8.84766C12.5352 8.90625 12.5 8.98828 12.5 9.0625C12.5 9.13672 12.5352 9.21875 12.5977 9.27734L12.6914 9.375H17.5H22.3086L22.4023 9.27734C22.5312 9.15234 22.5312 8.97266 22.4023 8.84766L22.3086 8.75H17.5H12.6914L12.5977 8.84766Z" fill="#ED2939"/>
<path d="M14.3164 11.918C14.1875 11.9375 13.9336 11.9961 13.75 12.0547C12.3438 12.4883 11.3047 13.5 10.8438 14.8828C10.1524 16.9727 11.1367 19.2578 13.1367 20.1953C14.4414 20.8086 15.9648 20.7422 17.2031 20.0156L17.5078 19.8359L17.6719 19.9961C17.8164 20.1367 17.832 20.1758 17.8203 20.2969C17.8047 20.4375 17.8242 20.457 19.3594 22C21.0664 23.7109 21.1133 23.75 21.5273 23.75C21.9414 23.75 22.3555 23.4336 22.4648 23.0352C22.5273 22.8047 22.4844 22.4883 22.3672 22.293C22.3164 22.2031 21.5781 21.4375 20.7266 20.5898C19.2031 19.0703 19.1836 19.0508 19.0508 19.0742C18.9297 19.0938 18.8984 19.0781 18.75 18.9258L18.5859 18.7578L18.7656 18.4531C19.2344 17.6562 19.4414 16.6797 19.3398 15.7812C19.1641 14.2891 18.293 13.0234 16.9688 12.3438C16.1992 11.9492 15.2109 11.7891 14.3164 11.918ZM15.9023 12.6133C16.5859 12.7891 17.1406 13.1094 17.6406 13.6094C18.1484 14.1133 18.457 14.6602 18.6406 15.3633C18.7656 15.8359 18.7656 16.6875 18.6406 17.1484C18.4453 17.8711 18.1602 18.3594 17.6367 18.8867C17.1016 19.4219 16.5586 19.7305 15.8359 19.9102C15.4297 20.0117 14.4922 20 14.0977 19.8906C12.7031 19.5117 11.6875 18.4766 11.3399 17.0859C11.2344 16.668 11.2461 15.7812 11.3633 15.3516C11.5352 14.6992 11.8203 14.1797 12.2617 13.707C12.832 13.0898 13.5664 12.6914 14.4141 12.543C14.7422 12.4844 15.5547 12.5234 15.9023 12.6133ZM18.3672 19.6172L18.2813 19.7031L18.1445 19.5703L18.0078 19.4375L18.0938 19.3477L18.1797 19.2539L18.3164 19.3945L18.457 19.5312L18.3672 19.6172ZM20.4805 21.2422C21.75 22.5117 21.875 22.6523 21.875 22.7695C21.875 22.9453 21.6953 23.125 21.5195 23.125C21.4023 23.125 21.2617 23 19.9805 21.7188L18.5742 20.3125L18.8086 20.0781C18.9375 19.9492 19.0508 19.8438 19.0625 19.8438C19.0742 19.8438 19.7109 20.4727 20.4805 21.2422Z" fill="#ED2939"/>
<path d="M12.9102 14.1602C12.8477 14.2188 12.8125 14.3008 12.8125 14.375C12.8125 14.4492 12.8477 14.5312 12.9102 14.5898L13.0039 14.6875H15H16.9961L17.0898 14.5898C17.1523 14.5312 17.1875 14.4492 17.1875 14.375C17.1875 14.3008 17.1523 14.2188 17.0898 14.1602L16.9961 14.0625H15H13.0039L12.9102 14.1602Z" fill="#ED2939"/>
<path d="M12.2852 15.4102C12.2227 15.4688 12.1875 15.5508 12.1875 15.625C12.1875 15.6992 12.2227 15.7812 12.2852 15.8398L12.3789 15.9375H13.75H15.1211L15.2148 15.8398C15.2773 15.7812 15.3125 15.6992 15.3125 15.625C15.3125 15.5508 15.2773 15.4688 15.2148 15.4102L15.1211 15.3125H13.75H12.3789L12.2852 15.4102Z" fill="#ED2939"/>
<path d="M16.0352 15.4102C15.9727 15.4688 15.9375 15.5508 15.9375 15.625C15.9375 15.6992 15.9727 15.7812 16.0352 15.8398C16.1289 15.9375 16.1367 15.9375 16.875 15.9375C17.6133 15.9375 17.6211 15.9375 17.7148 15.8398C17.7773 15.7812 17.8125 15.6992 17.8125 15.625C17.8125 15.5508 17.7773 15.4688 17.7148 15.4102C17.6211 15.3125 17.6133 15.3125 16.875 15.3125C16.1367 15.3125 16.1289 15.3125 16.0352 15.4102Z" fill="#ED2939"/>
<path d="M12.2852 16.6602C12.2227 16.7188 12.1875 16.8008 12.1875 16.875C12.1875 16.9492 12.2227 17.0312 12.2852 17.0898C12.3789 17.1875 12.3867 17.1875 13.125 17.1875C13.8633 17.1875 13.8711 17.1875 13.9648 17.0898C14.0273 17.0312 14.0625 16.9492 14.0625 16.875C14.0625 16.8008 14.0273 16.7188 13.9648 16.6602C13.8711 16.5625 13.8633 16.5625 13.125 16.5625C12.3867 16.5625 12.3789 16.5625 12.2852 16.6602Z" fill="#ED2939"/>
<path d="M14.7852 16.6602C14.7227 16.7188 14.6875 16.8008 14.6875 16.875C14.6875 16.9492 14.7227 17.0312 14.7852 17.0898L14.8789 17.1875H16.25H17.6211L17.7148 17.0898C17.7773 17.0312 17.8125 16.9492 17.8125 16.875C17.8125 16.8008 17.7773 16.7188 17.7148 16.6602L17.6211 16.5625H16.25H14.8789L14.7852 16.6602Z" fill="#ED2939"/>
<path d="M12.9102 17.9102C12.8477 17.9688 12.8125 18.0508 12.8125 18.125C12.8125 18.1992 12.8477 18.2812 12.9102 18.3398L13.0039 18.4375H14.0625H15.1211L15.2148 18.3398C15.2773 18.2812 15.3125 18.1992 15.3125 18.125C15.3125 18.0508 15.2773 17.9688 15.2148 17.9102L15.1211 17.8125H14.0625H13.0039L12.9102 17.9102Z" fill="#ED2939"/>
<path d="M16.0352 17.9102C15.9727 17.9688 15.9375 18.0508 15.9375 18.125C15.9375 18.1992 15.9727 18.2812 16.0352 18.3398C16.125 18.4336 16.1562 18.4375 16.5625 18.4375C16.9688 18.4375 17 18.4336 17.0898 18.3398C17.1523 18.2812 17.1875 18.1992 17.1875 18.125C17.1875 18.0508 17.1523 17.9688 17.0898 17.9102C17 17.8164 16.9688 17.8125 16.5625 17.8125C16.1562 17.8125 16.125 17.8164 16.0352 17.9102Z" fill="#ED2939"/>
<path d="M8.22266 15.0977L8.125 15.1914V16.25V17.3086L8.22266 17.4023C8.31641 17.5 8.32422 17.5 9.0625 17.5C9.80078 17.5 9.80859 17.5 9.90234 17.4023C10.0312 17.2773 10.0312 17.0977 9.90234 16.9727C9.8125 16.8789 9.78906 16.875 9.27734 16.875H8.75V16.25V15.625H9.27734C9.78906 15.625 9.8125 15.6211 9.90234 15.5273C9.96484 15.4688 10 15.3867 10 15.3125C10 15.2383 9.96484 15.1562 9.90234 15.0977C9.80859 15 9.80078 15 9.0625 15C8.32422 15 8.31641 15 8.22266 15.0977Z" fill="#ED2939"/>
<path d="M20.0977 15.0977C20.0352 15.1562 20 15.2383 20 15.3125C20 15.3867 20.0352 15.4688 20.0977 15.5273C20.1875 15.6211 20.2109 15.625 20.7227 15.625H21.25V16.25V16.875H20.7227C20.2109 16.875 20.1875 16.8789 20.0977 16.9727C20.0352 17.0312 20 17.1133 20 17.1875C20 17.2617 20.0352 17.3438 20.0977 17.4023C20.1914 17.5 20.1992 17.5 20.9375 17.5C21.6758 17.5 21.6836 17.5 21.7773 17.4023L21.875 17.3086V16.25V15.1914L21.7773 15.0977C21.6836 15 21.6758 15 20.9375 15C20.1992 15 20.1914 15 20.0977 15.0977Z" fill="#ED2939"/>
</svg>
