<svg width="30" height="30" viewBox="0 0 30 30" fill="none" xmlns="http://www.w3.org/2000/svg">
<g clip-path="url(#clip0_319_641)">
<path d="M19.3672 5.05078C18.8555 5.19531 18.5039 5.67188 18.5039 6.21875C18.5039 6.57813 18.6719 6.92969 18.9492 7.14844C19.1992 7.34375 19.3711 7.40235 19.7266 7.39844C20.0664 7.39844 20.3281 7.28516 20.5625 7.04688C20.7969 6.80469 20.8789 6.58985 20.8789 6.21094C20.8789 5.94531 20.8633 5.84375 20.7891 5.69922C20.5312 5.17578 19.918 4.89844 19.3672 5.05078ZM20.0391 5.74219C20.3437 5.96094 20.3477 6.46094 20.043 6.67578C19.4922 7.07031 18.8437 6.375 19.2656 5.83985C19.4414 5.61328 19.7969 5.57031 20.0391 5.74219Z" fill="#ED2939"/>
<path d="M14.3359 6.06641C14.2109 6.12891 14.1289 6.30079 14.1641 6.41798C14.1797 6.46485 14.332 6.64845 14.5039 6.82423L14.8203 7.14845L14.5195 7.45704C14.3555 7.62501 14.2031 7.8086 14.1836 7.8672C14.1328 7.9922 14.1797 8.13282 14.3047 8.21876C14.4727 8.33985 14.5625 8.30079 14.9258 7.94141L15.2734 7.60157L15.6211 7.94141C16.0117 8.32423 16.1289 8.3672 16.3086 8.1836C16.4922 8.00391 16.4492 7.88673 16.0664 7.4961L15.7266 7.14845L16.0664 6.80079C16.4531 6.40626 16.4805 6.32032 16.293 6.12891C16.1016 5.93751 16.0156 5.97266 15.5547 6.42188L15.2734 6.69923L14.9492 6.37891C14.6133 6.04298 14.4961 5.98438 14.3359 6.06641Z" fill="#ED2939"/>
<path d="M9.25 7.74609C8.91797 7.85938 8.82812 7.9375 8.82812 8.12109C8.82812 8.24219 8.89062 8.33984 9.25391 8.79688L9.68359 9.32812L7.69141 11.2109C6.36328 12.4727 5.70312 13.125 5.69922 13.1797C5.69531 13.2266 5.69922 13.2891 5.70312 13.3203C5.71875 13.4375 6.84375 15.4922 6.9375 15.5742C6.99219 15.625 7.07422 15.6641 7.12109 15.6641C7.16797 15.6602 7.57422 15.4727 8.02734 15.2422C8.98438 14.7539 8.97266 14.7656 8.83984 14.3516C8.76562 14.125 8.76172 14.0938 8.81641 14.0742C8.85156 14.0586 9.14844 14.082 9.48047 14.1211C10.3008 14.2148 10.6641 14.1719 10.9844 13.9375C11.082 13.8672 11.1094 13.918 11.125 14.2188C11.1406 14.457 11.125 14.5195 11.0273 14.7344C10.875 15.0547 10.5312 15.4844 9.92188 16.1133C9.32812 16.7266 9.125 16.9648 8.89453 17.3242C8.36328 18.1562 8.12109 18.9648 8.11719 19.957C8.11719 20.25 8.12891 20.5508 8.14453 20.6328L8.17188 20.7734L7.72266 20.7891C7.22266 20.8008 7.13672 20.8359 6.96484 21.0938C6.87891 21.2148 6.875 21.2617 6.875 21.8594V22.5H6.26172C5.75 22.5 5.61719 22.5156 5.48828 22.5742C5.30859 22.6562 5.09375 22.8828 5.05078 23.0391C5.03125 23.0977 5.01953 23.4336 5.01953 23.7891C5.01953 24.3984 5.02344 24.4414 5.11328 24.5977C5.16797 24.6914 5.27734 24.8125 5.36328 24.8711L5.51953 24.9805L12.3828 24.9922L19.2461 25L19.418 24.9102C19.5117 24.8594 19.6445 24.7422 19.707 24.6523L19.8242 24.4844V23.7539C19.8242 23.0234 19.8242 23.0195 19.7188 22.8633C19.6602 22.7773 19.5469 22.6641 19.4648 22.6133C19.3281 22.5273 19.2695 22.5195 18.6641 22.5078L18.0156 22.4922L18 21.8633C17.9883 21.2852 17.9805 21.2188 17.8984 21.0859C17.75 20.8438 17.5586 20.7812 16.9883 20.7812H16.5L16.2812 20.5586C15.9805 20.25 15.8828 20.0508 15.8672 19.6992C15.8516 19.4648 15.8672 19.3867 15.9492 19.2031C16.0664 18.9492 16.3672 18.6406 16.6094 18.5195C16.7031 18.4766 16.875 18.4219 16.9922 18.3984C17.1094 18.375 17.2383 18.3242 17.2773 18.2852C17.4688 18.0977 17.5977 17.1367 17.5664 16.1914C17.4688 13.3945 16.2266 10.625 14.5039 9.34766C13.7227 8.76562 13.0312 8.50781 12.0195 8.42188L11.4648 8.375L11.207 8.19141C10.5117 7.69922 9.83594 7.54688 9.25 7.74609ZM10.4102 8.44922C10.5703 8.52734 10.8359 8.6875 11 8.80859L11.2969 9.03125L11.8125 9.04297C12.9375 9.07422 13.8086 9.46484 14.668 10.3281C15.8516 11.5156 16.6953 13.5234 16.918 15.6836C16.9727 16.2188 16.9453 17.2461 16.8672 17.5703C16.8164 17.7734 16.8125 17.7812 16.6211 17.8438C15.8047 18.1211 15.2344 18.8672 15.2344 19.6641C15.2344 20.0078 15.3047 20.2578 15.4844 20.5547L15.6211 20.7812H12.207H8.79688L8.77344 20.6328C8.61328 19.5547 8.87109 18.4609 9.5 17.5469C9.61328 17.3867 9.95312 16.9961 10.25 16.6836C11.5664 15.3047 11.9141 14.7305 11.7969 14.125C11.7461 13.8555 11.418 13.1445 11.293 13.0312C11.168 12.918 10.9805 12.9336 10.8828 13.0625C10.5312 13.5273 10.3828 13.5898 9.74609 13.5156C9.01172 13.4336 8.76953 13.4258 8.60938 13.4766C8.39844 13.543 8.21094 13.6914 8.13672 13.8516C8.07812 13.9727 8.07812 14 8.14453 14.2188C8.18359 14.3477 8.20703 14.4609 8.19922 14.4688C8.16797 14.4961 7.25391 14.9219 7.24609 14.9141C7.20312 14.8555 6.40625 13.3516 6.40625 13.3242C6.40625 13.3047 7.30078 12.4414 8.39453 11.4062C9.52734 10.332 10.3945 9.48438 10.4062 9.43359C10.418 9.38281 10.418 9.30859 10.4023 9.26953C10.3828 9.21094 9.97266 8.68359 9.69141 8.34375C9.63281 8.27344 9.63672 8.26953 9.875 8.29297C10.043 8.30469 10.2148 8.35938 10.4102 8.44922ZM17.3828 21.9531V22.5H12.4414H7.5V21.9531V21.4062H12.4414H17.3828V21.9531ZM19.1719 23.1719C19.2383 23.2383 19.2383 24.2617 19.1719 24.3281C19.1367 24.3633 17.582 24.375 12.4141 24.375C5.82031 24.375 5.70703 24.375 5.66406 24.3008C5.64453 24.2578 5.625 24.0117 5.625 23.75C5.625 23.4883 5.64453 23.2422 5.66406 23.1992C5.70703 23.125 5.82031 23.125 12.4141 23.125C17.582 23.125 19.1367 23.1367 19.1719 23.1719Z" fill="#ED2939"/>
<path d="M12.2852 9.78516C12.0977 9.96875 12.168 10.1836 12.4727 10.3359C13 10.6055 13.6016 11.125 14.0234 11.6875C14.6484 12.5156 15.1055 13.6367 15.3086 14.8516C15.3828 15.2734 15.4648 16.2305 15.4688 16.6484C15.4688 16.832 15.5781 16.9531 15.7461 16.9531C15.9102 16.9531 16 16.8945 16.0469 16.7617C16.0977 16.6172 16.043 15.4727 15.957 14.918C15.5898 12.5664 14.4023 10.6328 12.8242 9.82422C12.5078 9.66406 12.4102 9.65625 12.2852 9.78516Z" fill="#ED2939"/>
<path d="M19.582 8.71094C19.4883 8.75 18.2852 10.2188 18.2187 10.3789C18.1641 10.5078 18.2148 10.6875 18.3203 10.7422C18.4336 10.8047 18.625 10.7891 18.7031 10.7109C18.7383 10.6758 18.9023 10.4805 19.0625 10.2813L19.3555 9.91797L19.375 11.8555L19.3945 13.7969L19.5039 13.8906L19.6133 13.9844H21.0586H22.5V15.7617V17.543L22.5977 17.6367C22.7227 17.7656 22.9023 17.7656 23.0273 17.6367L23.125 17.543V15.5469V13.5508L23.0273 13.457L22.9336 13.3594H21.4648H20V11.6094C20.0039 10.2305 20.0117 9.875 20.0508 9.92188C20.0781 9.95703 20.2422 10.1641 20.4219 10.3828C20.7305 10.7617 20.7539 10.7813 20.8945 10.7813C20.9961 10.7813 21.0664 10.7539 21.125 10.6914C21.2969 10.5078 21.2578 10.4297 20.582 9.58984C20.2383 9.16016 19.9336 8.78906 19.9102 8.76172C19.8438 8.69531 19.6797 8.66797 19.582 8.71094Z" fill="#ED2939"/>
<path d="M22.9492 8.91016C22.8281 8.98048 22.7734 9.06641 22.7734 9.19532C22.7734 9.29298 22.8359 9.37891 23.1133 9.65626L23.4531 10L23.1133 10.3438C22.7305 10.7383 22.6875 10.8555 22.8711 11.0352C23.0508 11.2188 23.1758 11.168 23.6016 10.75L23.9063 10.4531L24.25 10.793C24.6289 11.1641 24.7149 11.1953 24.8984 11.0508C24.9766 10.9922 25 10.9375 25 10.8281C25 10.6953 24.9648 10.6484 24.668 10.3516L24.3399 10.0234L24.668 9.6797C24.9531 9.38673 25 9.32032 25 9.20313C25 9.01173 24.8867 8.89063 24.7109 8.89063C24.582 8.89063 24.5313 8.92579 24.2266 9.23048L23.8867 9.57032L23.5547 9.23829C23.2149 8.90235 23.0859 8.83595 22.9492 8.91016Z" fill="#ED2939"/>
<path d="M22.5 19.0352C21.957 19.1875 21.625 19.6289 21.625 20.1953C21.625 20.6836 21.8633 21.0625 22.2969 21.2773C22.5977 21.4258 23.0508 21.4297 23.3203 21.293C23.5586 21.1719 23.7734 20.957 23.8984 20.7227C24.0391 20.4531 24.0469 20 23.9102 19.6992C23.8047 19.4609 23.543 19.207 23.3008 19.0977C23.0781 19 22.7227 18.9727 22.5 19.0352ZM23.0664 19.6875C23.25 19.7773 23.3984 20 23.3984 20.1914C23.3984 20.3906 23.2617 20.6133 23.0859 20.7031C22.8906 20.8008 22.7617 20.8008 22.5547 20.6992C22.3828 20.6172 22.2266 20.3828 22.2266 20.2031C22.2266 19.9961 22.3906 19.7578 22.5977 19.6641C22.7617 19.5898 22.8789 19.5977 23.0664 19.6875Z" fill="#ED2939"/>
</g>
<defs>
<clipPath id="clip0_319_641">
<rect width="20" height="20" fill="white" transform="translate(5 5)"/>
</clipPath>
</defs>
</svg>
