<svg width="30" height="30" viewBox="0 0 30 30" fill="none" xmlns="http://www.w3.org/2000/svg">
<path opacity="0.992" fill-rule="evenodd" clip-rule="evenodd" d="M6.38393 7.00279C12.128 6.99535 17.872 7.00279 23.6161 7.02511C24.3378 7.21113 24.7916 7.66498 24.9777 8.38672C25.0074 12.4641 25.0074 16.5415 24.9777 20.6189C24.7916 21.3406 24.3378 21.7944 23.6161 21.9805C17.872 22.0102 12.128 22.0102 6.38393 21.9805C5.6622 21.7944 5.20834 21.3406 5.02232 20.6189C4.99256 16.5415 4.99256 12.4641 5.02232 8.38672C5.21647 7.66435 5.67034 7.20302 6.38393 7.00279ZM6.78571 7.71708C12.2619 7.70962 17.7381 7.71708 23.2143 7.7394C23.9965 7.87525 24.3536 8.344 24.2857 9.14565C18.0952 9.14565 11.9048 9.14565 5.71429 9.14565C5.65598 8.34257 6.01312 7.86636 6.78571 7.71708ZM5.71429 9.85993C11.9048 9.85993 18.0952 9.85993 24.2857 9.85993C24.2932 13.3123 24.2857 16.7647 24.2634 20.2171C24.1816 20.8346 23.8318 21.1843 23.2143 21.2662C17.7381 21.296 12.2619 21.296 6.78571 21.2662C6.16816 21.1843 5.81845 20.8346 5.73661 20.2171C5.71429 16.7647 5.70684 13.3123 5.71429 9.85993Z" fill="#ED2939"/>
<path opacity="0.892" fill-rule="evenodd" clip-rule="evenodd" d="M6.60714 8.07421C7.11427 8.03894 7.26308 8.2547 7.05357 8.72153C6.58322 8.89997 6.38232 8.74372 6.45089 8.25278C6.48168 8.17019 6.53377 8.11064 6.60714 8.07421Z" fill="#ED2939"/>
<path opacity="0.892" fill-rule="evenodd" clip-rule="evenodd" d="M8.03571 8.07421C8.54285 8.03894 8.69164 8.2547 8.48213 8.72153C8.01178 8.89997 7.81089 8.74372 7.87946 8.25278C7.91025 8.17019 7.96233 8.11064 8.03571 8.07421Z" fill="#ED2939"/>
<path opacity="0.892" fill-rule="evenodd" clip-rule="evenodd" d="M9.46428 8.07421C9.97142 8.03894 10.1202 8.2547 9.91071 8.72153C9.44035 8.89997 9.23946 8.74372 9.30803 8.25278C9.33884 8.17019 9.39089 8.11064 9.46428 8.07421Z" fill="#ED2939"/>
<path opacity="0.922" fill-rule="evenodd" clip-rule="evenodd" d="M16.5625 11.2885C17.1011 11.2357 17.2723 11.4589 17.0759 11.9581C15.8941 14.5661 14.7036 17.1702 13.5045 19.7706C12.924 19.9638 12.7306 19.7704 12.9241 19.1903C14.1138 16.5431 15.3266 13.9092 16.5625 11.2885Z" fill="#ED2939"/>
<path opacity="0.918" fill-rule="evenodd" clip-rule="evenodd" d="M11.3839 12.6724C11.7809 12.7553 11.8925 12.9785 11.7187 13.3421C11.0612 14.0664 10.4287 14.8105 9.82142 15.5742C10.4287 16.3379 11.0612 17.082 11.7187 17.8063C11.8925 18.1435 11.7958 18.3667 11.4286 18.476C11.3006 18.4455 11.189 18.386 11.0937 18.2974C10.3943 17.479 9.69495 16.6605 8.99553 15.8421C8.90624 15.6635 8.90624 15.4849 8.99553 15.3064C9.69495 14.4879 10.3943 13.6694 11.0937 12.851C11.1836 12.773 11.2804 12.7134 11.3839 12.6724Z" fill="#ED2939"/>
<path opacity="0.918" fill-rule="evenodd" clip-rule="evenodd" d="M18.5268 12.6724C18.6716 12.6934 18.7982 12.7529 18.9062 12.851C19.6057 13.6694 20.305 14.4879 21.0045 15.3064C21.0937 15.4849 21.0937 15.6635 21.0045 15.8421C20.305 16.6605 19.6057 17.479 18.9062 18.2974C18.7188 18.4884 18.5179 18.5107 18.3036 18.3644C18.1375 18.1843 18.1301 17.9982 18.2812 17.8064C18.9388 17.082 19.5712 16.3379 20.1786 15.5742C19.5712 14.8105 18.9388 14.0664 18.2812 13.3421C18.1132 13.0239 18.195 12.8007 18.5268 12.6724Z" fill="#ED2939"/>
</svg>
