<svg width="30" height="30" viewBox="0 0 30 30" fill="none" xmlns="http://www.w3.org/2000/svg">
<g clip-path="url(#clip0_319_647)">
<path d="M6.82031 5.66797C6.57812 5.72656 6.22266 5.93359 6.05078 6.12109C5.96484 6.21484 5.83594 6.41016 5.76953 6.55469L5.64453 6.81641V14.0664V21.3125L5.78906 21.6094C6.0625 22.1562 6.51953 22.4531 7.14453 22.4922L7.48828 22.5117L7.50781 22.8594C7.52734 23.1562 7.55078 23.25 7.67188 23.4922C7.83984 23.8359 8.07031 24.0625 8.42969 24.2305L8.69141 24.3555H15.9414H23.1875L23.4844 24.2109C23.8398 24.0352 24.0586 23.8086 24.2305 23.4453L24.3555 23.1836V15.9375V8.69141L24.2305 8.42969C24.0625 8.07031 23.8359 7.83984 23.4922 7.67188C23.25 7.55078 23.1562 7.52734 22.8594 7.50781L22.5117 7.48828L22.4922 7.14453C22.4531 6.51953 22.1562 6.0625 21.6094 5.78906L21.3125 5.64453L14.1445 5.63672C9.90234 5.63672 6.91016 5.64844 6.82031 5.66797ZM21.2266 6.29688C21.4414 6.35938 21.7656 6.68359 21.8281 6.89844C21.8555 6.99219 21.875 7.28906 21.875 7.59375V8.125H14.0625H6.25V7.59375C6.25 7.28906 6.26953 6.99219 6.29688 6.89844C6.35547 6.69922 6.68359 6.36328 6.875 6.30078C7.08203 6.23438 21.0078 6.23438 21.2266 6.29688ZM23.1016 8.17188C23.3164 8.23438 23.6406 8.55859 23.7031 8.77344C23.7305 8.86719 23.75 9.16406 23.75 9.46875V10H23.125H22.5V9.0625V8.125H22.7188C22.8398 8.125 23.0117 8.14453 23.1016 8.17188ZM21.875 10.3008V11.8555L19.1641 14.5703L16.4492 17.2852L15.8828 18.7695C15.5703 19.5859 15.3125 20.293 15.3125 20.3438C15.3125 20.4609 15.4766 20.625 15.5938 20.625C15.6445 20.625 16.3516 20.3672 17.168 20.0547L18.6523 19.4883L20.2656 17.8789L21.875 16.2695V18.668C21.875 20.4375 21.8633 21.1055 21.8281 21.2266C21.7656 21.4414 21.4414 21.7656 21.2266 21.8281C20.9922 21.8984 7.13281 21.8984 6.89844 21.8281C6.68359 21.7656 6.35938 21.4414 6.29688 21.2266C6.26172 21.1016 6.25 19.6289 6.25 14.9062V8.75H14.0625H21.875V10.3008ZM23.75 11.7852V12.9492L23.125 12.3242L22.5 11.6992V11.1641V10.625H23.125H23.75V11.7852ZM22.9297 13.0273L23.5742 13.6719L23.1328 14.1094L22.6953 14.5508L22.0508 13.9062C21.6953 13.5508 21.4062 13.2461 21.4062 13.2266C21.4062 13.1758 22.1953 12.3828 22.2461 12.3828C22.2695 12.3828 22.5742 12.6719 22.9297 13.0273ZM21.1641 13.918L21.3672 14.1211L19.4922 15.9961L17.6172 17.8711L17.4023 17.6562L17.1875 17.4414L19.0508 15.5781C20.0781 14.5508 20.9258 13.7109 20.9375 13.7109C20.9492 13.7109 21.0508 13.8047 21.1641 13.918ZM23.7031 23.0859C23.6406 23.3125 23.3281 23.6367 23.1016 23.7031C22.8672 23.7734 9.00781 23.7734 8.77344 23.7031C8.55859 23.6406 8.23438 23.3164 8.17188 23.1016C8.14453 23.0117 8.125 22.8398 8.125 22.7188V22.5L14.7188 22.4922L21.3125 22.4805L21.6094 22.3359C21.9648 22.1602 22.1836 21.9336 22.3555 21.5703L22.4805 21.3086L22.4922 18.4766L22.5 15.6445L23.1172 15.0273L23.7305 14.4141L23.7422 18.6602C23.75 21.9219 23.7422 22.9492 23.7031 23.0859ZM20.3711 16.875L18.4961 18.75L18.2812 18.5352L18.0664 18.3203L19.9414 16.4453L21.8164 14.5703L22.0312 14.7852L22.2461 15L20.3711 16.875ZM17.918 19.0859C17.9141 19.0898 17.7695 19.1484 17.6016 19.2188L17.2891 19.3398L16.9453 18.9961L16.5977 18.6484L16.7227 18.3242L16.8516 18.0039L17.3867 18.5391C17.6836 18.8359 17.9219 19.082 17.918 19.0859ZM16.5234 19.4336C16.5938 19.5078 16.6484 19.5742 16.6367 19.582C16.6289 19.5938 16.5195 19.6367 16.3984 19.6797L16.1758 19.7617L16.2617 19.5312C16.3047 19.4023 16.3555 19.2969 16.3672 19.2969C16.3789 19.2969 16.4492 19.3594 16.5234 19.4336Z" fill="#ED2939"/>
<path d="M7.5 7.1875V7.5H7.8125H8.125V7.1875V6.875H7.8125H7.5V7.1875Z" fill="#ED2939"/>
<path d="M8.75 7.1875V7.5H9.0625H9.375V7.1875V6.875H9.0625H8.75V7.1875Z" fill="#ED2939"/>
<path d="M10 7.1875V7.5H10.3125H10.625V7.1875V6.875H10.3125H10V7.1875Z" fill="#ED2939"/>
<path d="M7.59766 10.0977L7.5 10.1914V11.875V13.5586L7.59766 13.6523L7.69141 13.75H10.3125H12.9336L13.0273 13.6523L13.125 13.5586V11.875V10.1914L13.0273 10.0977L12.9336 10H10.3125H7.69141L7.59766 10.0977ZM12.5 11.875V13.125H10.3125H8.125V11.875V10.625H10.3125H12.5V11.875Z" fill="#ED2939"/>
<path d="M14.375 10.625V10.9375H14.6875H15V10.625V10.3125H14.6875H14.375V10.625Z" fill="#ED2939"/>
<path d="M15.625 10.625V10.9375H18.125H20.625V10.625V10.3125H18.125H15.625V10.625Z" fill="#ED2939"/>
<path d="M14.375 11.875V12.1875H17.1875H20V11.875V11.5625H17.1875H14.375V11.875Z" fill="#ED2939"/>
<path d="M14.375 13.125V13.4375H16.5625H18.75V13.125V12.8125H16.5625H14.375V13.125Z" fill="#ED2939"/>
<path d="M7.5 15.3125V15.625H7.8125H8.125V15.3125V15H7.8125H7.5V15.3125Z" fill="#ED2939"/>
<path d="M8.75 15.3125V15.625H12.8125H16.875V15.3125V15H12.8125H8.75V15.3125Z" fill="#ED2939"/>
<path d="M7.5 16.5625V16.875H11.5625H15.625V16.5625V16.25H11.5625H7.5V16.5625Z" fill="#ED2939"/>
<path d="M7.5 17.8125V18.125H10.9375H14.375V17.8125V17.5H10.9375H7.5V17.8125Z" fill="#ED2939"/>
<path d="M7.5 19.0625V19.375H10.9375H14.375V19.0625V18.75H10.9375H7.5V19.0625Z" fill="#ED2939"/>
<path d="M7.5 20.3125V20.625H10.9375H14.375V20.3125V20H10.9375H7.5V20.3125Z" fill="#ED2939"/>
</g>
<defs>
<clipPath id="clip0_319_647">
<rect width="20" height="20" fill="white" transform="translate(5 5)"/>
</clipPath>
</defs>
</svg>
