<svg width="36" height="36" viewBox="0 0 36 36" fill="none" xmlns="http://www.w3.org/2000/svg">
<circle cx="18" cy="18" r="18" fill="white"/>
<g clip-path="url(#clip0_4440_448)">
<path d="M15.2656 10.0344C14.8375 10.0469 14.3437 10.0719 14.1718 10.0938C12.9093 10.2438 12.0125 10.6594 11.2781 11.4282C10.475 12.2719 10.1343 13.2376 10.0312 14.9376C9.99058 15.6157 9.99058 20.2751 10.0312 20.9876C10.1312 22.7501 10.475 23.7251 11.2906 24.5844C12.0187 25.3501 12.9656 25.7657 14.3437 25.9251C15.25 26.0313 20.7906 26.0157 21.7656 25.9063C23.0375 25.7626 23.8937 25.3907 24.6343 24.6626C25.325 23.9813 25.7375 23.0782 25.8906 21.9063C26.0343 20.8251 26.0343 15.1751 25.8906 14.0876C25.625 12.0594 24.5812 10.7844 22.7843 10.2782C22.2437 10.1282 21.7062 10.0657 20.6343 10.0313C19.5562 9.99695 16.4593 9.99695 15.2656 10.0344ZM21.0156 11.4719C23.2218 11.6188 24.1843 12.3751 24.45 14.1657C24.5375 14.7376 24.5718 16.2532 24.5531 18.6876C24.5375 20.9407 24.5218 21.3063 24.4187 21.9532C24.1968 23.3501 23.3687 24.1844 21.9687 24.4188C21.3906 24.5157 20.9625 24.5344 18.9843 24.5501C15.9875 24.5782 14.4312 24.5188 13.7312 24.3563C12.6031 24.0969 11.8875 23.3813 11.5906 22.2219C11.4281 21.5876 11.4218 21.4344 11.4218 18.0626C11.4218 15.2282 11.4281 14.8782 11.4781 14.4751C11.6531 13.0719 12.1 12.2969 12.9843 11.8594C13.3 11.7032 13.8093 11.5594 14.2812 11.4969C14.8625 11.4219 19.975 11.4001 21.0156 11.4719Z" fill="#ED2939"/>
<path d="M21.9594 12.825C21.2907 13.0656 21.0969 13.9031 21.5969 14.4031C21.7969 14.6 21.9719 14.6719 22.2657 14.6719C22.475 14.6719 22.5438 14.6594 22.6938 14.5844C23.0094 14.4281 23.1875 14.1563 23.2125 13.7938C23.2344 13.4719 23.1625 13.2844 22.9407 13.0594C22.8219 12.9406 22.7157 12.8688 22.6125 12.8344C22.4282 12.7719 22.125 12.7688 21.9594 12.825Z" fill="#ED2939"/>
<path d="M17.2813 13.9561C16.5 14.0967 15.7656 14.4717 15.1875 15.0217C14.5906 15.5905 14.2125 16.2405 14.0094 17.053C13.9313 17.3561 13.925 17.4467 13.9219 17.9686C13.9219 18.7561 14.0188 19.2061 14.3313 19.8248C14.9438 21.0436 16.1031 21.8717 17.4656 22.0655C17.8656 22.1217 18.5656 22.0842 18.9594 21.9873C20.1625 21.6873 21.1219 20.9217 21.6813 19.8123C21.9625 19.2561 22.0938 18.6686 22.0938 17.9811C22.0938 16.8936 21.7063 15.9405 20.9469 15.153C20.3281 14.5155 19.5563 14.103 18.7063 13.953C18.3656 13.8936 17.6125 13.8967 17.2813 13.9561ZM18.5438 15.3905C19.0594 15.4967 19.4875 15.7311 19.8781 16.1217C20.3719 16.6155 20.6188 17.1717 20.65 17.8623C20.6656 18.303 20.6313 18.5498 20.4969 18.9248C20.1875 19.778 19.4219 20.4248 18.5031 20.6123C18.3031 20.6498 18.15 20.6592 17.8781 20.6467C17.4375 20.6248 17.2344 20.5717 16.8281 20.3748C16.1531 20.0498 15.6469 19.4436 15.4344 18.7123C15.3406 18.3842 15.3188 17.8405 15.3875 17.4967C15.6031 16.4405 16.4063 15.6217 17.4531 15.3905C17.7094 15.3342 18.2656 15.3342 18.5438 15.3905Z" fill="#ED2939"/>
</g>
<defs>
<clipPath id="clip0_4440_448">
<rect width="16" height="16" fill="white" transform="translate(10 10)"/>
</clipPath>
</defs>
</svg>
