<svg width="36" height="36" viewBox="0 0 36 36" fill="none" xmlns="http://www.w3.org/2000/svg">
<circle cx="18" cy="18" r="18" fill="white"/>
<path d="M10 14.6667H13.3333V26H10V14.6667ZM11.6567 13.3333H11.638C10.6433 13.3333 10 12.592 10 11.666C10 10.72 10.6633 10 11.676 10C12.69 10 13.3147 10.72 13.3333 11.666C13.3333 12.5913 12.69 13.3333 11.6567 13.3333ZM26 26H22.6667V19.934C22.6667 18.4687 21.85 17.4687 20.5387 17.4687C19.538 17.4687 18.9967 18.1433 18.734 18.7953C18.638 19.0287 18.6667 19.674 18.6667 20V26H15.3333V14.6667H18.6667V16.4107C19.1473 15.6667 19.9 14.6667 21.8253 14.6667C24.2107 14.6667 25.9993 16.1667 25.9993 19.516L26 26Z" fill="#ED2939"/>
</svg>
