<svg width="100" height="100" viewBox="0 0 100 100" fill="none" xmlns="http://www.w3.org/2000/svg">
<g clip-path="url(#clip0_376_708)">
<path d="M82.6393 19.637C82.5705 19.137 82.1325 18.8603 81.7705 18.8298C81.4092 18.7997 73.7626 18.2329 73.7626 18.2329C73.7626 18.2329 68.452 12.9606 67.8691 12.3771C67.2859 11.7938 66.1468 11.9712 65.7047 12.1014C65.6397 12.1206 64.5444 12.4586 62.7328 13.0192C60.9588 7.91439 57.828 3.22329 52.3201 3.22329C52.1681 3.22329 52.0116 3.22946 51.8551 3.23836C50.2886 1.16678 48.3482 0.266785 46.6722 0.266785C33.8417 0.266785 27.7119 16.3062 25.79 24.4569C20.8044 26.0017 17.2626 27.1 16.8102 27.2421C14.0273 28.1151 13.9393 28.2027 13.5739 30.825C13.2989 32.8103 6.0174 89.1216 6.0174 89.1216L62.7564 99.7524L93.4996 93.1017C93.4996 93.1017 82.7071 20.137 82.6393 19.637ZM59.5968 13.989L54.7958 15.475C54.7975 15.1366 54.7992 14.8038 54.7992 14.4397C54.7992 11.2671 54.3588 8.71267 53.6523 6.68767C56.4903 7.04384 58.3804 10.2729 59.5968 13.989ZM50.1318 7.31678C50.9208 9.29384 51.4338 12.1312 51.4338 15.9599C51.4338 16.1558 51.4321 16.3349 51.4304 16.5161C48.3081 17.4832 44.9153 18.5332 41.515 19.5866C43.4242 12.2182 47.003 8.65925 50.1318 7.31678ZM46.3198 3.70822C46.8736 3.70822 47.4314 3.89624 47.9653 4.2637C43.8534 6.19863 39.4458 11.0719 37.5845 20.8038L29.7468 23.2312C31.927 15.8082 37.104 3.70822 46.3198 3.70822Z" fill="#95BF46"/>
<path d="M81.7705 18.8298C81.4092 18.7996 73.7626 18.2329 73.7626 18.2329C73.7626 18.2329 68.452 12.9606 67.8691 12.377C67.651 12.1599 67.3568 12.0486 67.0493 12.0007L62.7592 99.7517L93.4996 93.1017C93.4996 93.1017 82.7071 20.137 82.6393 19.637C82.5705 19.137 82.1325 18.8603 81.7705 18.8298Z" fill="#5E8E3E"/>
<path d="M52.3201 35.8168L48.5294 47.0928C48.5294 47.0928 45.2081 45.3202 41.1369 45.3202C35.1684 45.3202 34.8681 49.0658 34.8681 50.0096C34.8681 55.1596 48.2927 57.1329 48.2927 69.1959C48.2927 78.6867 42.2732 84.798 34.1568 84.798C24.4171 84.798 19.4362 78.7363 19.4362 78.7363L22.0441 70.1199C22.0441 70.1199 27.164 74.5154 31.4842 74.5154C34.3071 74.5154 35.4554 72.2928 35.4554 70.6688C35.4554 63.951 24.4417 63.6514 24.4417 52.6127C24.4417 43.3219 31.1102 34.3312 44.5712 34.3312C49.7578 34.3312 52.3201 35.8168 52.3201 35.8168Z" fill="white"/>
</g>
<defs>
<clipPath id="clip0_376_708">
<rect width="87.68" height="100" fill="white" transform="translate(6)"/>
</clipPath>
</defs>
</svg>
