<svg width="36" height="36" viewBox="0 0 36 36" fill="none" xmlns="http://www.w3.org/2000/svg">
<circle cx="18" cy="18" r="18" fill="white"/>
<path d="M15.5 11.4645C13.7422 11.5036 11.5938 11.6091 11.0625 11.6794C10.3281 11.7731 9.81641 11.9919 9.32031 12.4255C8.80078 12.8708 8.51562 13.3825 8.29688 14.2614C8.08203 15.1208 8.01953 16.1677 8.01953 18.9997C8.01953 22.3552 8.11719 23.4802 8.49219 24.4177C8.92578 25.4958 9.73047 26.0934 11.0078 26.2809C11.6602 26.3747 12.3086 26.4177 14.2891 26.4841C17.457 26.5895 20.8828 26.5622 23.7539 26.402C25.2422 26.3161 25.5352 26.2692 26.0625 26.0075C26.7734 25.652 27.2422 25.113 27.5352 24.3044C27.8984 23.32 27.9766 22.3512 27.9766 18.9997C27.9766 15.7731 27.8906 14.6716 27.5742 13.7497C27.2266 12.7497 26.5312 12.0856 25.5312 11.7966C25.1094 11.6755 24.6562 11.6286 23.1562 11.5583C20.5586 11.4333 18.0977 11.4059 15.5 11.4645ZM20.2734 12.6325C22.5 12.6872 24.7188 12.8044 25.0898 12.8903C25.418 12.9684 25.6523 13.0817 25.9141 13.2887C26.168 13.488 26.3281 13.7419 26.4727 14.1755C26.7383 14.9723 26.8086 16.0075 26.8047 19.0778C26.8047 22.2692 26.7305 23.1286 26.3945 23.9997C26.1484 24.6442 25.7031 24.9958 24.9766 25.1364C24.7305 25.1833 23.0664 25.2731 21.4375 25.3317C19.7812 25.3864 16.625 25.3903 14.875 25.3317C11.3281 25.2184 10.75 25.1481 10.1914 24.777C9.87891 24.57 9.69922 24.3161 9.53906 23.8512C9.26562 23.0583 9.19141 22.0231 9.19141 18.9997C9.19141 16.0075 9.26172 15.0231 9.53125 14.2223C9.67969 13.777 9.78906 13.5856 10.0234 13.3669C10.4844 12.9333 10.7891 12.8473 12.1406 12.7692C14.6797 12.6208 17.5977 12.5739 20.2734 12.6325Z" fill="#ED2939"/>
<path d="M15.9454 15.6562C15.7657 15.7382 15.5548 15.9726 15.504 16.1601C15.4688 16.2773 15.461 17.0234 15.4688 18.8905L15.4806 21.453L15.5977 21.6249C15.7657 21.8593 16.0079 21.9882 16.2891 21.9843C16.5001 21.9804 16.586 21.9413 18.7891 20.7577C20.0392 20.0859 21.1173 19.496 21.1759 19.453C21.3595 19.3202 21.4845 19.0702 21.4845 18.8359C21.4884 18.5663 21.4063 18.3788 21.2188 18.2226C21.1329 18.1523 20.2501 17.6484 19.2501 17.0976C16.4259 15.5507 16.5235 15.6015 16.2774 15.6015C16.1602 15.6054 16.0118 15.6288 15.9454 15.6562ZM18.4102 17.9765C19.1641 18.3905 19.8126 18.746 19.8477 18.7734C19.9063 18.8163 19.6954 18.9413 18.2931 19.6913C17.4024 20.1718 16.6641 20.5624 16.6524 20.5624C16.6407 20.5624 16.6329 19.7616 16.6329 18.7812V16.9999L16.8399 17.1171C16.9493 17.1796 17.6602 17.5663 18.4102 17.9765Z" fill="#ED2939"/>
</svg>
